<svg xmlns="http://www.w3.org/2000/svg" xmlns:xlink="http://www.w3.org/1999/xlink" viewBox="0 0 373 200"><defs><style>.cls-1{isolation:isolate;}.cls-2{fill:#fbf1d0;}.cls-3{fill:#b8a175;}.cls-4{fill:#b89669;}.cls-5{fill:#cf5323;}.cls-6{mix-blend-mode:multiply;fill:url(#linear-gradient);}.cls-7{fill:#c1a877;}</style><linearGradient id="linear-gradient" x1="13.43" y1="88.05" x2="358.99" y2="88.05" gradientUnits="userSpaceOnUse"><stop offset="0" stop-color="#231f21"/><stop offset="0.1" stop-color="#231f21" stop-opacity="0.88"/><stop offset="0.14" stop-color="#231f21" stop-opacity="0.75"/><stop offset="0.16" stop-color="#4e4b4d" stop-opacity="0.79"/><stop offset="0.18" stop-color="#848182" stop-opacity="0.84"/><stop offset="0.2" stop-color="#b0aeaf" stop-opacity="0.88"/><stop offset="0.22" stop-color="#d2d2d2" stop-opacity="0.91"/><stop offset="0.24" stop-color="#ebebeb" stop-opacity="0.93"/><stop offset="0.26" stop-color="#fafafa" stop-opacity="0.95"/><stop offset="0.27" stop-color="#fff" stop-opacity="0.95"/><stop offset="0.34" stop-color="#fff"/><stop offset="0.48" stop-color="#231f21" stop-opacity="0.65"/><stop offset="0.51" stop-color="#231f21" stop-opacity="0.65"/><stop offset="0.69" stop-color="#fff"/><stop offset="0.72" stop-color="#fff" stop-opacity="0.98"/><stop offset="0.75" stop-color="#fff" stop-opacity="0.94"/><stop offset="0.86" stop-color="#231f21" stop-opacity="0.75"/><stop offset="1" stop-color="#231f21"/></linearGradient></defs><title>Baileys</title><g class="cls-1"><g id="AW"><path class="cls-2" d="M80.33,94.81c-2.19-5.53-8.11-8.16-14.89-5.33A8.93,8.93,0,0,0,67.18,79.3C65,75,59.74,73.4,54.23,76.21,49.8,78.47,38.55,85.15,35.9,87c-.29.19-.33.18-.44.68,0,.11-.07.4-.12.73s0,.56.4.33c3.87-2.11,5.68,2.67,6.54,4.16.71,1.17,13.31,22.31,13.93,23.46a5.2,5.2,0,0,1-.61,5.63c-.38.39-.27.39-.28.86,0,.32-.05,0,0,.42s.2.52.61.26c3.29-2.22,11-6.49,14.33-8.23,12.35-6.6,12.08-15.56,10.1-20.47M51.82,82.7c3.19-1.55,6.44-1.13,7.93,1.65A6.39,6.39,0,0,1,57.18,93a9.8,9.8,0,0,1-2,1,1.45,1.45,0,0,1-1.86-.59l-4.79-8.77a34.92,34.92,0,0,1,3.31-1.94m16.75,28.4c-3.47,1.89-4.76,1.36-5.8-.38-.48-.88-3.48-6.33-6.59-12a54.78,54.78,0,0,1,5.18-3.09c3.86-1.83,8.57-1.88,11,3.4,2.05,4.41.92,9.51-3.78,12.08"/><path class="cls-2" d="M132.64,91.51c-3.13.29-3.36-.81-5.61-3.31-.8-.94-23.73-29.51-24.47-30.35-.43-.5-.65-.65-1.5-.38s-2.82.87-3.83,1.29c-.52.21-.66.47-.67,1.2,0,1.14-1.21,30.33-1.66,36.81-.21,2.93-.54,5.12-2.53,6.9a1,1,0,0,0-.48.86c-.09.47,0,.19-.12.65s.09.45.41.3c2.46-1.16,9.85-3.8,11.87-4.42.32-.11.36-.22.49-.63s0,0,.21-.64c.09-.33-.07-.44-.41-.35-4.12,1-4.71-2-4.7-5.38,0-1.7,0-5.25.09-8.11,3-1,7.93-2.72,11.5-3.87,2.42,3.23,4.53,6.16,4.89,6.65,1,1.32,1.94,3.11,1.78,4.43-.1,1.12-1.56,2-2.31,2.46-.4.22-.33.54-.47,1.17-.11.46,0,0-.06.35s.14.34.46.23c3.1-.92,11.67-3.21,16.58-4.2.49-.1.54-.13.61-.4.24-.55.2-.47.34-.82s.11-.51-.42-.45M99.83,81.7c.2-7,.44-14.14.44-14.14l8.38,11.09c-2.57.86-6.48,2.21-8.82,3"/><path class="cls-2" d="M156.4,89c.32,0,.5-.1.75-.52a4,4,0,0,0,.36-.57c.13-.24.1-.51-.36-.49-4.29.17-4.12-2.82-4.36-4.89-.17-1.3-3.81-27.35-4-28.59-.24-2-.16-3.79,1.77-4.65.48-.2.9-.2,1.08-.63a6.82,6.82,0,0,0,.26-.84c.13-.39,0-.49-.43-.45-3.31.29-11.33,1.42-15.3,2.19a.85.85,0,0,0-.73.53c-.26.45-.12.3-.33.71-.12.24-.09.53.38.49C139.61,51,139.68,54,140,56c.21,1.28,4.44,27.45,4.58,28.67.33,2.57-.24,3.77-2.51,4.87-.44.23-.49.3-.6.68-.05.16-.13.34-.18.54s0,.46.47.36c2.7-.64,11.64-1.91,14.69-2.17"/><path class="cls-2" d="M170.92,87.89c-.45,0-.56-.11-.4-.49s.1-.29.26-.59.22-.45.72-.62c2.32-.75,3-2.33,2.91-4.46,0-1.2-.91-27.6-1-28.89-.11-1.95,0-5.09-4-5.19-.44,0-.44-.28-.3-.51s.15-.24.44-.65a.92.92,0,0,1,.77-.48c4-.37,12.37-.28,15.84-.38.46,0,.59.11.38.46a2.9,2.9,0,0,1-.26.66c-.2.38-.63.36-1.15.51-2.22.65-3,2.72-2.9,5,0,1.2.27,25.82.3,27.1.05,2.08.3,3.82,4.54,4.12a23.27,23.27,0,0,0,6.28-.28,8.89,8.89,0,0,0,6.28-5.64,2.23,2.23,0,0,1,.73-1.27,1.73,1.73,0,0,1,.55-.23c.53-.17.58-.14.53.34-.11,1.29-.67,9-.74,9.86-.08,1-.38,1.5-1.28,1.45a250,250,0,0,0-28.51.14"/><path class="cls-2" d="M244.67,51.05a258.32,258.32,0,0,0-27.73-3.94.86.86,0,0,0-.83.35c-.34.35-.16.07-.48.4-.16.2-.2.48.25.54,3.35.55,2.4,3.65,2.26,5.77-.09,1.29-3,27.56-3.13,28.93a4.27,4.27,0,0,1-3.67,4.1.93.93,0,0,0-.79.51c-.2.25,0,0-.15.36s-.12.51.33.53A234.54,234.54,0,0,1,240.61,93c.86.18,1.31-.2,1.56-1.2.17-.8,2.08-9.79,2.23-10.45s0-.67-.46-.49c-.17.07-.49.15-.8.28s-.44.4-.69,1c-.92,2.13-2.74,5.07-6.28,5.29a42.76,42.76,0,0,1-8.52-1c-4.16-1-4.13-2.55-4-4.62,0-.68.57-6.4,1.27-12.61,1.85.22,4.71.51,5.9.7,4.33.71,6.33.15,6.38,5.17,0,.45.15.49.47.32a6.69,6.69,0,0,0,.69-.4c.34-.23.37-.41.42-.9.13-.87.88-6.49,1.11-8.11.09-.69-.28-.71-.79-.4-1.56.92-1.94,1.31-6.41.73-1.89-.23-5.42-.67-7.32-1,.71-6.26,1.36-12,1.45-12.7,2.16.32,5.05.61,8.6,1.26,3.29.59,8.21.76,9,5,.08.45.28.4.45.26s.51-.28.69-.46.16-.11.15-.65,0-4.37,0-5.64a1.22,1.22,0,0,0-1.06-1.24"/><path class="cls-2" d="M297.58,66.53c-3.23-1.43-9.27-3.52-13.19-4.87a.68.68,0,0,0-.84.09,2.43,2.43,0,0,0-.62.52c-.2.2-.41.42,0,.59,4.21,1.73,2.19,5.45,0,7.7-2,2-9.47,9.36-9.47,9.36s-2.89-12.81-3.38-15.45c-.36-1.89.07-4.74,4.2-4.13a.83.83,0,0,0,.88-.31c.11-.1.13-.18.5-.55.21-.23.18-.42-.25-.59-3.51-1.15-12.07-3.42-16.33-4.31a.86.86,0,0,0-.9.19c-.44.35-.54.38-.79.59s-.26.41.17.59c3.44,1.4,4,6.16,4.52,8.21.48,1.78,3.6,15,3.83,16.48a8.8,8.8,0,0,1-.12,3.59c-.7,3-1.87,6.7-2.23,7.7-.78,2.2-1.53,3.39-3.76,3.52a1,1,0,0,0-.86.38A16.33,16.33,0,0,0,257.87,97c-.29.3-.24.47.25.58,3,.69,11.08,3.34,14.29,4.49a.86.86,0,0,0,.92-.17c.38-.27,1.11-.84,1.48-1.13.2-.15.28-.42-.16-.59-4.09-1.62-3.46-4.38-2.93-6.54.2-.77,1.9-6,2.15-6.91a5.59,5.59,0,0,1,2-3.11c4.62-4.26,13.42-12.57,14.35-13.49,2.23-2.16,3.46-2.54,6.05-2.35.53,0,.53.07.88-.2s.25-.23.57-.49.26-.4-.18-.6"/><path class="cls-2" d="M328,95.6c.77-1.23,4.64-7.13,5.24-8.09.5-.77.33-1.06-.62-1.21A4.83,4.83,0,0,1,330,85c-1.44-1-3.36-3.8-7.36-6.27-6.24-3.92-14.51-4.47-18.89,1.34a10.77,10.77,0,0,0,.11,12.9c1.75,2.25,6.48,7.36,7.35,8.39,1.73,2.09,2.4,3.82,2.22,5.41a5.32,5.32,0,0,1-1,2.71c-1.89,2.51-6.6,3.33-11,.31-3.83-2.6-6.57-7.33-4.34-13.35.2-.55,0-.75-.53-.65a6.79,6.79,0,0,1-.79.12c-.44.09-.62.18-1,.91-.5,1-4.67,9.12-5.21,10.25-.24.57,0,.73.41.73a4.94,4.94,0,0,1,2.76.69c2.76,1.29,3.59,3.21,7.15,5.58,6.74,4.46,15.51,4.24,19.93-.73,3-3.37,4.6-8.91,1.27-13.5-2.07-2.84-6.86-8-8.39-9.93-1.25-1.58-2.31-3.83-1.08-6.05,1.4-2.57,5.37-3.45,9.21-1.1,4.12,2.57,7.62,7.55,5.46,12.23-.38.82-.41,1.08.18,1s.29,0,.66,0,.55.1.88-.44"/><path class="cls-3" d="M98.67,65.53q-.46,8.42-.9,16.82L99,81.94c.24-5,.49-9.93.73-14.89C99.36,66.55,99,66,98.67,65.53Z"/><path class="cls-3" d="M108.92,69.9c6.48,8,15.41,19.21,15.9,19.76a11.46,11.46,0,0,0,2.39,2.15,4.16,4.16,0,0,0,.7.13c.3,0,1.08.26,1.44.24a10.07,10.07,0,0,1-2.92-2.47c-.78-.91-23.51-29.46-24.26-30.29-.4-.5-.62-.66-1.48-.41l-.65.19a1.49,1.49,0,0,1,.74.53C101.09,60.08,104.65,64.65,108.92,69.9Z"/><path class="cls-3" d="M97.68,96.77c0,2.24.75,3.22,1.88,3.81a3.3,3.3,0,0,0,2,0,4.23,4.23,0,0,1-2.78-4.2c0-1.35.1-7.78.18-9.95-.4.13-.79.25-1.17.4C97.74,89.15,97.7,95.49,97.68,96.77Z"/><path class="cls-3" d="M182.06,48a7.07,7.07,0,0,0-1.61,1.33c-1,1-1,3.07-1,4.34s.4,24.75.43,26.24a5,5,0,0,0,.53,2.42A2.77,2.77,0,0,0,182,83a5.21,5.21,0,0,1-.9-3.15c0-1.27-.26-23.38-.26-26.25C180.86,49.13,182.06,48,182.06,48Z"/><path class="cls-3" d="M148.06,49.94a6.56,6.56,0,0,0-1.44,1.5c-.8,1.13-.61,3.19-.41,4.45.18,1.11,3.87,27.15,4.07,28.63a4.62,4.62,0,0,0,.82,2.3,2.8,2.8,0,0,0,1.64.51,5,5,0,0,1-1.29-3c-.19-1.24-3.53-25.82-3.87-28.65C147,51.19,148.06,49.94,148.06,49.94Z"/><path class="cls-3" d="M238.3,67l-.49.22c-.21,1.6-.46,2.86-.57,3.63,0,.22.21.36.49,1a3.78,3.78,0,0,1,.29,1.32s.58-4.35.8-5.84C238.92,66.63,238.76,66.71,238.3,67Z"/><path class="cls-3" d="M222.52,82.48c0-.58.83-8.18,1.45-13.43l-1.29-.13c-.65,6.07-1.35,12.92-1.36,13.42a2.77,2.77,0,0,0,.34,1.75A2.84,2.84,0,0,0,223,85.14,4.44,4.44,0,0,1,222.52,82.48Z"/><path class="cls-3" d="M243.52,51.86l-.88-.24a1.18,1.18,0,0,1,.61,1c0,.43.09.59.08,2.14,0,.27.26.52.51.78a1.85,1.85,0,0,1,.67,1c0,.4,0-2.63,0-3.66A1.06,1.06,0,0,0,243.52,51.86Z"/><path class="cls-3" d="M240.82,87.08l-.71,3.25A1.36,1.36,0,0,1,239,91.46c.17.05.77.11,1,.16.83.23,1.15-.35,1.43-1.3.09-.42,1.12-5.28,1.12-5.28a13,13,0,0,1-.86,1.25A5.22,5.22,0,0,1,240.82,87.08Z"/><path class="cls-3" d="M198.77,81.65s-.32,3.64-.33,3.76a1.33,1.33,0,0,1-.94,1.27c.17,0,.79,0,1,0,.87.11,1.11-.51,1.23-1.48.05-.41.38-5.42.38-5.42C199.64,80.42,199.2,81,198.77,81.65Z"/><path class="cls-3" d="M224.29,65.07q.73-6.33,1.49-12.66l-1.29-.18c-.45,4.23-.94,8.46-1.4,12.68Z"/><path class="cls-3" d="M268.74,60.35a2.8,2.8,0,0,0-1.53,3.14c.34,1.67,4,18.24,4,18.24l1.17-1.09s-3.5-15.52-3.83-17a3.21,3.21,0,0,1,1.93-3.69A7.33,7.33,0,0,0,268.74,60.35Z"/><path class="cls-3" d="M291.13,66.76A7.67,7.67,0,0,0,287.29,69c-.63.62-3.54,3.89-7.3,7.31-1.74,1.62-4.27,4.16-5.72,5.53-1.09,1-2.23,1.73-2.68,3.34-.08.3-.4,1.06-.65,2-.49,1.75-2,6.64-2.14,7.14a4,4,0,0,0,.71,3.17,3.65,3.65,0,0,0,1.12,1c-.54-1.29-1-2-.62-3.4.2-.76,2.64-8.52,2.9-9.41.48-1.63,1.75-2.41,2.85-3.4,4.59-4.18,12.15-11.83,13.1-12.75,1.87-1.77,3.26-2.66,6-2.48A6.56,6.56,0,0,0,291.13,66.76Z"/><path class="cls-3" d="M273.43,100.34c-.17-.08-.53-.4-.7-.22a5.82,5.82,0,0,1-1,.72,1.21,1.21,0,0,1-.41.21c.24.09.48.15.66.24a.89.89,0,0,0,.94-.15c.41-.3.41-.26.62-.44S273.81,100.51,273.43,100.34Z"/><path class="cls-3" d="M295.19,105.53a6.53,6.53,0,0,0,2.56,2.57c-1.77-2.12-3-6-2.41-8.71.12-.56-.7.29-1,1.39A7.32,7.32,0,0,0,295.19,105.53Z"/><path class="cls-3" d="M309.85,81.72a4.47,4.47,0,0,0-.55,3,7.27,7.27,0,0,0,1.12,2.79c-.45-1.48-.62-3.71.44-5,1.28-1.57,2.36-2,4.85-2a6.68,6.68,0,0,0-2.53-.39A4.06,4.06,0,0,0,309.85,81.72Z"/><path class="cls-3" d="M320.31,100.73a13.22,13.22,0,0,1,.5,2.55,10.9,10.9,0,0,1-3.31,9.05c-2.39,2.45-6.46,3-9,3a15.63,15.63,0,0,1-3.83-.4c5.29,2.12,10.92,1.24,14.09-2.08a10.19,10.19,0,0,0,1.81-11.75A4.44,4.44,0,0,0,320.31,100.73Z"/><path class="cls-3" d="M331.68,87.07l-.5-.08c0,.1-.11.2-.18.36-.59.95-1.29,2-2,3.29a10.93,10.93,0,0,0-.59,2.53c-.07.28.32-.18.66-.7.75-1.23,2.18-3.37,2.77-4.31C332.25,87.38,332.61,87.21,331.68,87.07Z"/><path class="cls-3" d="M46.73,86l4.46,7.84a1.87,1.87,0,0,0,1,1.13,1.77,1.77,0,0,0,1.35-.25c-.32-.11-.59-.28-1-1-.24-.4-4.78-8.54-4.78-8.54C47.41,85.47,47.07,85.74,46.73,86Z"/><path class="cls-3" d="M69.35,90a6.53,6.53,0,0,1,1.19.09A9.27,9.27,0,0,1,78.22,96a12.38,12.38,0,0,1-.09,9.6,14.73,14.73,0,0,1-1.42,3.21c4.21-4.85,4.06-10,2.73-13.3A9.55,9.55,0,0,0,67.9,90,10.62,10.62,0,0,1,69.35,90Z"/><path class="cls-3" d="M57.65,76.17c.78-.1.37,0,1.13.05a7.35,7.35,0,0,1,5.8,4.4,8,8,0,0,1,0,7.74c0,.11-.39.51-.42.61a4.38,4.38,0,0,0,1.27-1.46c1.22-1.83,1.52-5.69.26-7.76A7.6,7.6,0,0,0,57.65,76.17Z"/><path class="cls-3" d="M61.83,111.53c-.47-.78-6.76-12.2-6.76-12.2-.32.24-.66.47-1,.71,0,0,6.33,11.48,6.76,12.25s.92,1.15,1.3,1.21.84-.27,1.35-.52A2.76,2.76,0,0,1,61.83,111.53Z"/><path class="cls-2" d="M51.23,146.21q-20.88-29.91-42-59.79l1.17-.89c17-13,80.21-55.32,175.81-54.3C281.76,30.29,345,72.55,361.9,85.43c.38.3.77.6,1.16.88-.24.44-.49.86-.73,1.29q-20.7,29.28-41.13,58.6c-.44-.32-.87-.65-1.27-1-25.7-20-74.45-41.61-133.72-41.59v-3c59.08,0,107.93,21.21,134.3,41.26Q339.68,114.42,359,87.05C344.44,76.22,280.58,33.3,186.25,34.26c-94.5-1-158.57,42.17-172.82,52.79q19.31,27.36,38.48,54.81c26.38-20.05,75.21-41.26,134.3-41.26v3c-59.28,0-108,21.56-133.7,41.59Z"/><path class="cls-4" d="M186.23,25h0C115.46,24.62,47.7,47.15.18,85.42q25.06,35,49.85,70c24.2-20.08,72.83-45.83,136.18-45.83h0c63.34,0,112,25.75,136.17,45.83q24.79-35,49.85-70C324.73,47.15,257,24.62,186.23,25Zm135,121.2c-.44-.32-.87-.65-1.27-1-25.7-20-74.45-41.61-133.72-41.59,0-.5,0-.5,0,0-59.28,0-108,21.56-133.7,41.59l-1.28,1q-20.88-29.91-42-59.79l1.17-.89c17-13,80.21-55.32,175.81-54.3C281.76,30.29,345,72.55,361.9,85.43c.38.3.77.6,1.16.88-.24.44-.49.86-.73,1.29Q341.64,116.88,321.21,146.21Z"/><path class="cls-5" d="M72.35,99c2.05,4.41.92,9.51-3.78,12.08-3.47,1.89-4.76,1.36-5.8-.38-.48-.88-3.48-6.33-6.59-12a54.78,54.78,0,0,1,5.18-3.09C65.22,93.78,69.93,93.73,72.35,99ZM99.83,81.7c2.34-.84,6.25-2.19,8.82-3l-8.38-11.09S100,74.68,99.83,81.7ZM359,87.05q-19.31,27.36-38.47,54.81c-26.37-20.05-75.22-41.26-134.3-41.26h0c-59.09,0-107.92,21.21-134.3,41.26Q32.75,114.42,13.43,87.05c14.25-10.63,78.32-53.8,172.82-52.79C280.58,33.3,344.44,76.22,359,87.05ZM80.33,94.81c-2.19-5.53-8.11-8.16-14.89-5.33A8.93,8.93,0,0,0,67.18,79.3C65,75,59.74,73.4,54.23,76.21,49.8,78.47,38.55,85.15,35.9,87c-.29.19-.33.18-.44.68,0,.11-.07.4-.12.73s0,.56.4.33c3.87-2.11,5.68,2.67,6.54,4.16.71,1.17,13.31,22.31,13.93,23.46a5.2,5.2,0,0,1-.61,5.63c-.38.39-.27.39-.28.86,0,.32-.05,0,0,.42s.2.52.61.26c3.29-2.22,11-6.49,14.33-8.23C82.58,108.69,82.31,99.72,80.33,94.81Zm52.31-3.3c-3.13.29-3.36-.81-5.61-3.31-.8-.94-23.73-29.51-24.47-30.35-.43-.5-.65-.65-1.5-.38s-2.82.87-3.83,1.29c-.52.21-.66.47-.67,1.2,0,1.14-1.21,30.33-1.66,36.81-.21,2.93-.54,5.12-2.53,6.9a1,1,0,0,0-.48.86c-.09.47,0,.19-.12.65s.09.45.41.3c2.46-1.16,9.85-3.8,11.87-4.42.32-.11.36-.22.49-.63s0,0,.21-.64c.09-.33-.07-.44-.41-.35-4.12,1-4.71-2-4.7-5.38,0-1.7,0-5.25.09-8.11,3-1,7.93-2.72,11.5-3.87,2.42,3.23,4.53,6.16,4.89,6.65,1,1.32,1.94,3.11,1.78,4.43-.1,1.12-1.56,2-2.31,2.46-.4.22-.33.54-.47,1.17-.11.46,0,0-.06.35s.14.34.46.23c3.1-.92,11.67-3.21,16.58-4.2.49-.1.54-.13.61-.4.24-.55.2-.47.34-.82S133.16,91.45,132.64,91.51Zm24.5-4.13c-4.29.17-4.12-2.82-4.36-4.89-.17-1.3-3.81-27.35-4-28.59-.24-2-.16-3.79,1.77-4.65.48-.2.9-.2,1.08-.63a6.82,6.82,0,0,0,.26-.84c.13-.39,0-.49-.43-.45-3.31.29-11.33,1.42-15.3,2.19a.85.85,0,0,0-.73.53c-.26.45-.12.3-.33.71-.12.24-.09.53.38.49C139.61,51,139.68,54,140,56c.21,1.28,4.44,27.45,4.58,28.67.33,2.57-.24,3.77-2.51,4.87-.44.23-.49.3-.6.68-.05.16-.13.34-.18.54s0,.46.47.36c2.7-.64,11.64-1.91,14.69-2.17.32,0,.5-.1.75-.52a4,4,0,0,0,.36-.57C157.64,87.63,157.61,87.36,157.14,87.38ZM200.92,76.1a1.73,1.73,0,0,0-.55.23,2.23,2.23,0,0,0-.73,1.27,8.89,8.89,0,0,1-6.28,5.64,23.27,23.27,0,0,1-6.28.28c-4.25-.3-4.49-2-4.54-4.12,0-1.29-.26-25.9-.3-27.1-.08-2.31.68-4.37,2.9-5,.52-.15.94-.13,1.15-.51a2.9,2.9,0,0,0,.26-.66c.21-.36.09-.46-.38-.46-3.48.1-11.89,0-15.84.38a.92.92,0,0,0-.77.48c-.29.41-.2.27-.44.65s-.13.51.3.51c4,.1,3.91,3.25,4,5.19.07,1.29.93,27.69,1,28.89.07,2.13-.59,3.71-2.91,4.46-.5.17-.49.24-.72.62s-.09.23-.26.59-.05.53.4.49a250,250,0,0,1,28.51-.14c.9.05,1.2-.44,1.28-1.45.07-.83.63-8.57.74-9.86C201.51,76,201.45,75.93,200.92,76.1Zm44.8-23.8a1.22,1.22,0,0,0-1.06-1.24,258.32,258.32,0,0,0-27.73-3.94.86.86,0,0,0-.83.35c-.34.35-.16.07-.48.4-.16.2-.2.48.25.54,3.35.55,2.4,3.65,2.26,5.77-.09,1.29-3,27.56-3.13,28.93a4.27,4.27,0,0,1-3.67,4.1.93.93,0,0,0-.79.51c-.2.25,0,0-.15.36s-.12.51.33.53A234.54,234.54,0,0,1,240.61,93c.86.18,1.31-.2,1.56-1.2.17-.8,2.08-9.79,2.23-10.45s0-.67-.46-.49c-.17.07-.49.15-.8.28s-.44.4-.69,1c-.92,2.13-2.74,5.07-6.28,5.29a42.76,42.76,0,0,1-8.52-1c-4.16-1-4.13-2.55-4-4.62,0-.68.57-6.4,1.27-12.61,1.85.22,4.71.51,5.9.7,4.33.71,6.33.15,6.38,5.17,0,.45.15.49.47.32a6.69,6.69,0,0,0,.69-.4c.34-.23.37-.41.42-.9.13-.87.88-6.49,1.11-8.11.09-.69-.28-.71-.79-.4-1.56.92-1.94,1.31-6.41.73-1.89-.23-5.42-.67-7.32-1,.71-6.26,1.36-12,1.45-12.7,2.16.32,5.05.61,8.6,1.26,3.29.59,8.21.76,9,5,.08.45.28.4.45.26s.51-.28.69-.46.16-.11.15-.65S245.76,53.56,245.72,52.29Zm30.18,31.37c4.62-4.26,13.42-12.57,14.35-13.49,2.23-2.16,3.46-2.54,6.05-2.35.53,0,.53.07.88-.2s.25-.23.57-.49.26-.4-.18-.6c-3.23-1.43-9.27-3.52-13.19-4.87a.68.68,0,0,0-.84.09,2.43,2.43,0,0,0-.62.52c-.2.2-.41.42,0,.59,4.21,1.73,2.19,5.45,0,7.7-2,2-9.47,9.36-9.47,9.36s-2.89-12.81-3.38-15.45c-.36-1.89.07-4.74,4.2-4.13a.83.83,0,0,0,.88-.31c.11-.1.13-.18.5-.55.21-.23.18-.42-.25-.59-3.51-1.15-12.07-3.42-16.33-4.31a.86.86,0,0,0-.9.19c-.44.35-.54.38-.79.59s-.26.41.17.59c3.44,1.4,4,6.16,4.52,8.21.48,1.78,3.6,15,3.83,16.48a8.8,8.8,0,0,1-.12,3.59c-.7,3-1.87,6.7-2.23,7.7-.78,2.2-1.53,3.39-3.76,3.52a1,1,0,0,0-.86.38A16.33,16.33,0,0,0,257.87,97c-.29.3-.24.47.25.58,3,.69,11.08,3.34,14.29,4.49a.86.86,0,0,0,.92-.17c.38-.27,1.11-.84,1.48-1.13.2-.15.28-.42-.16-.59-4.09-1.62-3.46-4.38-2.93-6.54.2-.77,1.9-6,2.15-6.91A5.59,5.59,0,0,1,275.91,83.66Zm56.71,2.64A4.83,4.83,0,0,1,330,85c-1.44-1-3.36-3.8-7.36-6.27-6.24-3.92-14.51-4.47-18.89,1.34a10.77,10.77,0,0,0,.11,12.9c1.75,2.25,6.48,7.36,7.35,8.39,1.73,2.09,2.4,3.82,2.22,5.41a5.32,5.32,0,0,1-1,2.71c-1.89,2.51-6.6,3.33-11,.31-3.83-2.6-6.57-7.33-4.34-13.35.2-.55,0-.75-.53-.65a6.79,6.79,0,0,1-.79.12c-.44.09-.62.18-1,.91-.5,1-4.67,9.12-5.21,10.25-.24.57,0,.73.41.73a4.94,4.94,0,0,1,2.76.69c2.76,1.29,3.59,3.21,7.15,5.58,6.74,4.46,15.51,4.24,19.93-.73,3-3.37,4.6-8.91,1.27-13.5-2.07-2.84-6.86-8-8.39-9.93-1.25-1.58-2.31-3.83-1.08-6.05,1.4-2.57,5.37-3.45,9.21-1.1,4.12,2.57,7.62,7.55,5.46,12.23-.38.82-.41,1.08.18,1s.29,0,.66,0,.55.1.88-.44c.77-1.23,4.64-7.13,5.24-8.09C333.74,86.74,333.57,86.46,332.62,86.31Zm-272.86-2c-1.5-2.78-4.74-3.2-7.93-1.65a34.92,34.92,0,0,0-3.31,1.94l4.79,8.77a1.45,1.45,0,0,0,1.86.59,9.8,9.8,0,0,0,2-1A6.39,6.39,0,0,0,59.76,84.35Z"/><path class="cls-6" d="M72.35,99c2.05,4.41.92,9.51-3.78,12.08-3.47,1.89-4.76,1.36-5.8-.38-.48-.88-3.48-6.33-6.59-12a54.78,54.78,0,0,1,5.18-3.09C65.22,93.78,69.93,93.73,72.35,99ZM99.83,81.7c2.34-.84,6.25-2.19,8.82-3l-8.38-11.09S100,74.68,99.83,81.7ZM359,87.05q-19.31,27.36-38.47,54.81c-26.37-20.05-75.22-41.26-134.3-41.26h0c-59.09,0-107.92,21.21-134.3,41.26Q32.75,114.42,13.43,87.05c14.25-10.63,78.32-53.8,172.82-52.79C280.58,33.3,344.44,76.22,359,87.05ZM80.33,94.81c-2.19-5.53-8.11-8.16-14.89-5.33A8.93,8.93,0,0,0,67.18,79.3C65,75,59.74,73.4,54.23,76.21,49.8,78.47,38.55,85.15,35.9,87c-.29.19-.33.18-.44.68,0,.11-.07.4-.12.73s0,.56.4.33c3.87-2.11,5.68,2.67,6.54,4.16.71,1.17,13.31,22.31,13.93,23.46a5.2,5.2,0,0,1-.61,5.63c-.38.39-.27.39-.28.86,0,.32-.05,0,0,.42s.2.52.61.26c3.29-2.22,11-6.49,14.33-8.23C82.58,108.69,82.31,99.72,80.33,94.81Zm52.31-3.3c-3.13.29-3.36-.81-5.61-3.31-.8-.94-23.73-29.51-24.47-30.35-.43-.5-.65-.65-1.5-.38s-2.82.87-3.83,1.29c-.52.21-.66.47-.67,1.2,0,1.14-1.21,30.33-1.66,36.81-.21,2.93-.54,5.12-2.53,6.9a1,1,0,0,0-.48.86c-.09.47,0,.19-.12.65s.09.45.41.3c2.46-1.16,9.85-3.8,11.87-4.42.32-.11.36-.22.49-.63s0,0,.21-.64c.09-.33-.07-.44-.41-.35-4.12,1-4.71-2-4.7-5.38,0-1.7,0-5.25.09-8.11,3-1,7.93-2.72,11.5-3.87,2.42,3.23,4.53,6.16,4.89,6.65,1,1.32,1.94,3.11,1.78,4.43-.1,1.12-1.56,2-2.31,2.46-.4.22-.33.54-.47,1.17-.11.46,0,0-.06.35s.14.34.46.23c3.1-.92,11.67-3.21,16.58-4.2.49-.1.54-.13.61-.4.24-.55.2-.47.34-.82S133.16,91.45,132.64,91.51Zm24.5-4.13c-4.29.17-4.12-2.82-4.36-4.89-.17-1.3-3.81-27.35-4-28.59-.24-2-.16-3.79,1.77-4.65.48-.2.9-.2,1.08-.63a6.82,6.82,0,0,0,.26-.84c.13-.39,0-.49-.43-.45-3.31.29-11.33,1.42-15.3,2.19a.85.85,0,0,0-.73.53c-.26.45-.12.3-.33.71-.12.24-.09.53.38.49C139.61,51,139.68,54,140,56c.21,1.28,4.44,27.45,4.58,28.67.33,2.57-.24,3.77-2.51,4.87-.44.23-.49.3-.6.68-.05.16-.13.34-.18.54s0,.46.47.36c2.7-.64,11.64-1.91,14.69-2.17.32,0,.5-.1.75-.52a4,4,0,0,0,.36-.57C157.64,87.63,157.61,87.36,157.14,87.38ZM200.92,76.1a1.73,1.73,0,0,0-.55.23,2.23,2.23,0,0,0-.73,1.27,8.89,8.89,0,0,1-6.28,5.64,23.27,23.27,0,0,1-6.28.28c-4.25-.3-4.49-2-4.54-4.12,0-1.29-.26-25.9-.3-27.1-.08-2.31.68-4.37,2.9-5,.52-.15.94-.13,1.15-.51a2.9,2.9,0,0,0,.26-.66c.21-.36.09-.46-.38-.46-3.48.1-11.89,0-15.84.38a.92.92,0,0,0-.77.48c-.29.41-.2.27-.44.65s-.13.51.3.51c4,.1,3.91,3.25,4,5.19.07,1.29.93,27.69,1,28.89.07,2.13-.59,3.71-2.91,4.46-.5.17-.49.24-.72.62s-.09.23-.26.59-.05.53.4.49a250,250,0,0,1,28.51-.14c.9.05,1.2-.44,1.28-1.45.07-.83.63-8.57.74-9.86C201.51,76,201.45,75.93,200.92,76.1Zm44.8-23.8a1.22,1.22,0,0,0-1.06-1.24,258.32,258.32,0,0,0-27.73-3.94.86.86,0,0,0-.83.35c-.34.35-.16.07-.48.4-.16.2-.2.48.25.54,3.35.55,2.4,3.65,2.26,5.77-.09,1.29-3,27.56-3.13,28.93a4.27,4.27,0,0,1-3.67,4.1.93.93,0,0,0-.79.51c-.2.25,0,0-.15.36s-.12.51.33.53A234.54,234.54,0,0,1,240.61,93c.86.18,1.31-.2,1.56-1.2.17-.8,2.08-9.79,2.23-10.45s0-.67-.46-.49c-.17.07-.49.15-.8.28s-.44.4-.69,1c-.92,2.13-2.74,5.07-6.28,5.29a42.76,42.76,0,0,1-8.52-1c-4.16-1-4.13-2.55-4-4.62,0-.68.57-6.4,1.27-12.61,1.85.22,4.71.51,5.9.7,4.33.71,6.33.15,6.38,5.17,0,.45.15.49.47.32a6.69,6.69,0,0,0,.69-.4c.34-.23.37-.41.42-.9.13-.87.88-6.49,1.11-8.11.09-.69-.28-.71-.79-.4-1.56.92-1.94,1.31-6.41.73-1.89-.23-5.42-.67-7.32-1,.71-6.26,1.36-12,1.45-12.7,2.16.32,5.05.61,8.6,1.26,3.29.59,8.21.76,9,5,.08.45.28.4.45.26s.51-.28.69-.46.16-.11.15-.65S245.76,53.56,245.72,52.29Zm30.18,31.37c4.62-4.26,13.42-12.57,14.35-13.49,2.23-2.16,3.46-2.54,6.05-2.35.53,0,.53.07.88-.2s.25-.23.57-.49.26-.4-.18-.6c-3.23-1.43-9.27-3.52-13.19-4.87a.68.68,0,0,0-.84.09,2.43,2.43,0,0,0-.62.52c-.2.2-.41.42,0,.59,4.21,1.73,2.19,5.45,0,7.7-2,2-9.47,9.36-9.47,9.36s-2.89-12.81-3.38-15.45c-.36-1.89.07-4.74,4.2-4.13a.83.83,0,0,0,.88-.31c.11-.1.13-.18.5-.55.21-.23.18-.42-.25-.59-3.51-1.15-12.07-3.42-16.33-4.31a.86.86,0,0,0-.9.19c-.44.35-.54.38-.79.59s-.26.41.17.59c3.44,1.4,4,6.16,4.52,8.21.48,1.78,3.6,15,3.83,16.48a8.8,8.8,0,0,1-.12,3.59c-.7,3-1.87,6.7-2.23,7.7-.78,2.2-1.53,3.39-3.76,3.52a1,1,0,0,0-.86.38A16.33,16.33,0,0,0,257.87,97c-.29.3-.24.47.25.58,3,.69,11.08,3.34,14.29,4.49a.86.86,0,0,0,.92-.17c.38-.27,1.11-.84,1.48-1.13.2-.15.28-.42-.16-.59-4.09-1.62-3.46-4.38-2.93-6.54.2-.77,1.9-6,2.15-6.91A5.59,5.59,0,0,1,275.91,83.66Zm56.71,2.64A4.83,4.83,0,0,1,330,85c-1.44-1-3.36-3.8-7.36-6.27-6.24-3.92-14.51-4.47-18.89,1.34a10.77,10.77,0,0,0,.11,12.9c1.75,2.25,6.48,7.36,7.35,8.39,1.73,2.09,2.4,3.82,2.22,5.41a5.32,5.32,0,0,1-1,2.71c-1.89,2.51-6.6,3.33-11,.31-3.83-2.6-6.57-7.33-4.34-13.35.2-.55,0-.75-.53-.65a6.79,6.79,0,0,1-.79.12c-.44.09-.62.18-1,.91-.5,1-4.67,9.12-5.21,10.25-.24.57,0,.73.41.73a4.94,4.94,0,0,1,2.76.69c2.76,1.29,3.59,3.21,7.15,5.58,6.74,4.46,15.51,4.24,19.93-.73,3-3.37,4.6-8.91,1.27-13.5-2.07-2.84-6.86-8-8.39-9.93-1.25-1.58-2.31-3.83-1.08-6.05,1.4-2.57,5.37-3.45,9.21-1.1,4.12,2.57,7.62,7.55,5.46,12.23-.38.82-.41,1.08.18,1s.29,0,.66,0,.55.1.88-.44c.77-1.23,4.64-7.13,5.24-8.09C333.74,86.74,333.57,86.46,332.62,86.31Zm-272.86-2c-1.5-2.78-4.74-3.2-7.93-1.65a34.92,34.92,0,0,0-3.31,1.94l4.79,8.77a1.45,1.45,0,0,0,1.86.59,9.8,9.8,0,0,0,2-1A6.39,6.39,0,0,0,59.76,84.35Z"/><path class="cls-2" d="M338.09,89.1l-.9-.51.44-.76,2.69,1.56-.44.75-.9-.51-1.48,2.56-.9-.52Zm5.44,3.52h0l-2.07,1.83-.79-.45.55-2.71h0l-1.31,2.28L339,93l1.91-3.32,1.35.78-.47,2.39h0l1.82-1.61,1.36.78-1.91,3.31-.84-.49Z"/><path class="cls-7" d="M162.9,160.08a13.05,13.05,0,0,1,3.86-8.9,24.31,24.31,0,0,0,6.29,3.39,30.18,30.18,0,0,0,7.19,1.79s0,2.12-.13,5.11c-.12,2.37-.87,6-2.76,7.94a7.41,7.41,0,0,1-5.61,2.16h-.07c-1.09,0-9.31-.46-8.75-11.49m37.25,11.49a7.44,7.44,0,0,1-5.62-2.16c-1.89-2-2.63-5.57-2.75-7.94-.15-3-.13-5.11-.13-5.11a34,34,0,0,0,7.51-1.93,24.06,24.06,0,0,0,5.93-3.26,13.09,13.09,0,0,1,3.88,8.91c.56,11-7.66,11.49-8.75,11.49h-.07m-25-20.37a18.91,18.91,0,0,1-5.15-2.54,23.23,23.23,0,0,1,5.06-2.27,36.45,36.45,0,0,1,5-1.16s.1,4.78.17,7.13a31.25,31.25,0,0,1-5-1.17m16.8-6a36.9,36.9,0,0,1,5,1.16,23.47,23.47,0,0,1,5.07,2.27,19.1,19.1,0,0,1-5.16,2.54,30.59,30.59,0,0,1-5,1.15c.07-2.35.18-7.12.18-7.12m-8.23,7.43s0-2.9,0-3.69,0-4.16,0-4.16,1.16-.1,2.25-.1c1.34,0,2.28.1,2.28.1s0,3.42,0,4.16,0,3.69,0,3.69-1.51.08-2.27.08-2.25-.08-2.25-.08m-20.14-19.34a7.66,7.66,0,0,1,6.81-6.19c3.06-.23,9.27,1.93,9.36,14.42a51.35,51.35,0,0,0-6.18,1.38,34.34,34.34,0,0,0-6.75,2.71c-.71-.8-4.52-6.67-3.24-12.33m34.81,9.62a51.23,51.23,0,0,0-6.18-1.38c.08-12.49,6.3-14.65,9.37-14.42a7.68,7.68,0,0,1,6.8,6.19c1.28,5.66-2.53,11.53-3.25,12.33a34.09,34.09,0,0,0-6.74-2.71m4.48-19.06a14,14,0,0,0-3.2.44c-1.46.38-5.5,1.53-9.22.88-2.82-.48-3.43,1.34-3.27,2.38a124.48,124.48,0,0,1,1,13.52c-.74,0-1.68-.07-2.23-.07s-1.48,0-2.2.07a122.4,122.4,0,0,1,1-13.52c.16-1-.44-2.87-3.27-2.38-3.73.65-7.77-.5-9.22-.88a14.1,14.1,0,0,0-3.21-.44h-.51a11.48,11.48,0,0,0-9.82,5.47,11.22,11.22,0,0,0-1.55,5.68c.12,5.1,3.35,9.37,5.58,11.76.11.12.61.59.85.83a22.39,22.39,0,0,0-3.69,3.52c-.79,1-6,7.08-2.85,15.18,3.09,7.8,11.85,9,16.34,8.64s5.42-1,9.29-1.25a2.11,2.11,0,0,0,1.85-1.2,6.45,6.45,0,0,0-.2-2.79,27.57,27.57,0,0,1-.27-3c-.12-2.51-.35-10.09-.35-10.09.21,0,1.45,0,2.19,0l2.22,0s-.23,7.58-.35,10.09a30.13,30.13,0,0,1-.27,3,6.17,6.17,0,0,0-.19,2.79,2.1,2.1,0,0,0,1.84,1.2c3.88.23,4.93.92,9.29,1.25s13.25-.84,16.33-8.64c3.2-8.1-2.07-14.19-2.85-15.18a21.9,21.9,0,0,0-3.69-3.52c.25-.24.74-.71.85-.83,2.23-2.39,5.46-6.66,5.58-11.76a11.24,11.24,0,0,0-1.55-5.68,11.46,11.46,0,0,0-9.82-5.47Z"/><path class="cls-7" d="M217.4,124.83h-1.14v-1h3.43v1h-1.17v3.25H217.4Zm7.13.37h0l-1,2.89-1,0-.95-2.87h0v2.89l-1.1,0,0-4.21,1.72,0,.82,2.54h0l.82-2.54h1.75l0,4.21H224.5Z"/></g></g></svg>