<svg id="AW" xmlns="http://www.w3.org/2000/svg" viewBox="0 0 202 200"><defs><style>.cls-1{fill:#ffdd36;}.cls-2{fill:#fff;}.cls-3{fill:none;stroke:#83764f;stroke-miterlimit:10;stroke-width:1.75px;}.cls-4{fill:#ff1926;}.cls-5{fill:#83764f;}</style></defs><title>J&amp;amp;B</title><path class="cls-1" d="M11.43,190.44,5,32.85H63.91a40.73,40.73,0,0,1,12.14-15,40.62,40.62,0,0,1,49.19,0,40.72,40.72,0,0,1,12.14,15h58.93l-6.45,157.59Z"/><path class="cls-2" d="M100.65,14.12a35.73,35.73,0,0,1,21.83,7.36,36.42,36.42,0,0,1,11.9,15.93h57.19l-6.08,148.47H15.81L9.73,37.41H66.92a36.42,36.42,0,0,1,11.9-15.93,35.73,35.73,0,0,1,21.83-7.36m0-9.12a44.78,44.78,0,0,0-27.36,9.23A45.28,45.28,0,0,0,61.12,28.29H.23l.39,9.49L6.7,186.25,7.06,195H194.24l.36-8.75,6.08-148.47.39-9.49h-60.9A45.28,45.28,0,0,0,128,14.23,44.78,44.78,0,0,0,100.65,5Z"/><path d="M100.65,14.12a35.73,35.73,0,0,1,21.83,7.36,36.42,36.42,0,0,1,11.9,15.93h57.19l-6.08,148.47H15.81L9.73,37.41H66.92a36.42,36.42,0,0,1,11.9-15.93,35.73,35.73,0,0,1,21.83-7.36m0-4.05a39.75,39.75,0,0,0-24.29,8.19,40.23,40.23,0,0,0-12.13,15.1H5.51l.17,4.22L11.76,186l.16,3.89H189.38l.16-3.89,6.08-148.47.17-4.22H137.06a40.22,40.22,0,0,0-12.13-15.1,39.75,39.75,0,0,0-24.29-8.19Z"/><path class="cls-3" d="M185.48,185.88l6.08-148.47H134.37a36.42,36.42,0,0,0-11.9-15.93,36.06,36.06,0,0,0-43.66,0,36.42,36.42,0,0,0-11.9,15.93H9.73l6.08,148.47Z"/><path class="cls-4" d="M170.47,163.66a6.87,6.87,0,1,0,7,6.86A6.93,6.93,0,0,0,170.47,163.66Zm0,12.28a5.42,5.42,0,1,1,5.52-5.43A5.47,5.47,0,0,1,170.47,175.94Z"/><path class="cls-4" d="M171.68,170.84a2.17,2.17,0,0,0,2-2.11c0-1-.8-2.06-2.59-2.06h-3.41v7.54h1.53v-3.06h.54c.78,0,1.08.18,2,1.85l.65,1.12,1.58.09h.31l-1-1.67A4.47,4.47,0,0,0,171.68,170.84ZM169.17,168h1.74c.69,0,1.13.36,1.13.91,0,.8-.84.92-1.35.92h-1.53C169.17,169.53,169.17,168.24,169.17,168Z"/><path id="_Path_" data-name="&lt;Path&gt;" class="cls-5" d="M90.83,65.44V52.89c0-.5-.23-.82-1-.82H52.37c-.59,0-.77.27-.76.71,0,0,0,12.06,0,12.44s.15.67.58.67h9.06a.28.28,0,0,1,.29.31c0,.15.08,88.82.09,90a7.61,7.61,0,0,1-7.44,7.24c-6.63,0-8.35-4.52-7.89-7.07a19.11,19.11,0,0,0,2,.15c5.21,0,9-4.95,9-10.92C57.34,139.06,52.46,134,45,134c-7.12,0-14.5,5.9-14.5,17.07,0,12.31,10.74,22.38,24.24,22.38,12.29,0,25.41-8.5,25.41-24.63,0-6.77.08-74,.08-82.6,0-.25.08-.33.35-.33h9.68C90.63,65.93,90.83,65.77,90.83,65.44Z"/><path id="_Path_2" data-name="&lt;Path&gt;" class="cls-5" d="M111.17,126.41c0-5.3-3.51-7.82-6.44-7.82a5.62,5.62,0,0,0-5.52,5.53,4.34,4.34,0,0,0,4,4.12c.16,0,.22.16.17.34a3.42,3.42,0,0,1-3.58,2.72c-3.38,0-5.24-5.08-5.24-8.72,0-8,2.81-10,6.49-10a5.27,5.27,0,0,1,1.95.29c.16.07.58.16.58-.25s0-5,0-5.41-.29-.38-.51-.31a16.53,16.53,0,0,1-2.6.31c-2.9,0-5.6-2.9-5.6-7.59,0-6.57,2-10,5-10a2.69,2.69,0,0,1,2.58,1.79c0,.24,0,.37-.21.4-.89.11-3,1.54-3,4.59a5.48,5.48,0,0,0,5.48,5.29c2.33,0,5.34-2.08,5.34-6.58,0-6.57-6.73-9.52-11.26-9.52C92,85.51,85.11,90,85.11,98.81a15.85,15.85,0,0,0,5.44,11.44c.14.11.14.22,0,.3-2.36,1.18-6.92,5.83-6.92,12.66s5.94,13.87,15.24,13.87C107.24,137.08,111.17,130.08,111.17,126.41Z"/><path id="_Compound_Path_" data-name="&lt;Compound Path&gt;" class="cls-5" d="M150.57,105.28c7.59-2.13,17.6-10.94,17.6-25,0-18.36-15.33-28-27.6-28-8,0-35.68.09-35.68.09-.46,0-.7.27-.7.55s0,12.3,0,12.52.12.56.65.56H115c.23,0,.31.2.31.42v91.93c0,.43-.18.64-.58.64H104.26c-.31,0-.47.27-.47.58s0,12.92,0,13.17a.39.39,0,0,0,.42.44l33.6.05c23.38,0,36.19-19,36.19-34.75C174,116.19,157.39,106.84,150.57,105.28ZM133.7,66a10.79,10.79,0,0,1,2.46-.18c8.15-.22,13.61,3.08,13.61,14.87s-5.24,19.38-14,19.14c-1,0-2.34,0-2.34-.41S133.7,66,133.7,66Zm-.5,92.81.25-47.61c13.15-.38,19.81,8.58,19.81,25.26C153.27,155.63,143.35,159.55,133.21,158.76Z"/><path id="_Path_3" data-name="&lt;Path&gt;" class="cls-4" d="M88.75,63.88V51.34c0-.5-.23-.82-1-.82H50.29c-.59,0-.77.27-.76.71,0,0,0,12.06,0,12.44s.15.67.58.67h9.06a.28.28,0,0,1,.29.31c0,.15.09,88.81.09,90a7.61,7.61,0,0,1-7.44,7.24c-6.63,0-8.36-4.52-7.9-7.07a18.72,18.72,0,0,0,2,.16c5.21,0,9-5,9-10.93,0-6.55-4.89-11.56-12.33-11.56-7.12,0-14.51,5.91-14.51,17.07,0,12.32,10.74,22.38,24.25,22.38,12.29,0,25.41-8.5,25.41-24.63,0-6.76.08-74,.08-82.6,0-.25.08-.34.35-.34H88.2C88.55,64.37,88.75,64.21,88.75,63.88Z"/><path id="_Path_4" data-name="&lt;Path&gt;" class="cls-4" d="M109.1,124.85c0-5.3-3.51-7.82-6.44-7.82a5.62,5.62,0,0,0-5.52,5.53,4.34,4.34,0,0,0,4,4.12c.16,0,.23.16.17.34a3.41,3.41,0,0,1-3.57,2.72c-3.38,0-5.23-5.08-5.23-8.72,0-8,2.81-10,6.49-10a5.3,5.3,0,0,1,1.95.28c.16.07.58.16.58-.25s0-5.05,0-5.41-.29-.38-.51-.31a16.53,16.53,0,0,1-2.6.31c-2.9,0-5.6-2.9-5.6-7.59,0-6.57,2-10,5-10a2.68,2.68,0,0,1,2.58,1.79c0,.24,0,.37-.21.41-.89.11-3,1.54-3,4.59a5.48,5.48,0,0,0,5.49,5.29c2.33,0,5.34-2.08,5.34-6.59,0-6.57-6.74-9.52-11.26-9.52C89.93,84,83,88.4,83,97.25a15.85,15.85,0,0,0,5.44,11.44c.14.11.15.22,0,.3-2.37,1.18-6.92,5.83-6.92,12.66s5.94,13.87,15.24,13.87C105.17,135.53,109.1,128.53,109.1,124.85Z"/><path id="_Compound_Path_2" data-name="&lt;Compound Path&gt;" class="cls-4" d="M148.55,103.72c7.59-2.13,17.6-10.94,17.6-25,0-18.35-15.33-28-27.6-28-8,0-35.68.09-35.68.09-.46,0-.69.27-.69.55s0,12.3,0,12.52.12.56.66.56h10.13c.23,0,.31.2.31.42v91.93c0,.43-.18.64-.58.64H102.23c-.31,0-.47.27-.47.58s0,12.92,0,13.17a.39.39,0,0,0,.42.44l33.6,0c23.38,0,36.19-19,36.19-34.75C172,114.63,155.37,105.28,148.55,103.72ZM131.68,64.39a11,11,0,0,1,2.46-.18c8.15-.23,13.61,3.08,13.61,14.87s-5.24,19.38-14,19.14c-1,0-2.34,0-2.34-.41S131.68,64.39,131.68,64.39Zm-.5,92.81.26-47.61c13.15-.37,19.81,8.58,19.81,25.26C151.25,154.07,141.33,158,131.18,157.21Z"/></svg>