<svg id="AW" xmlns="http://www.w3.org/2000/svg" viewBox="0 0 453 200"><defs><style>.cls-1{fill:#ba0c2f;fill-rule:evenodd;}.cls-2{fill:#fff;}</style></defs><title>Smirnoff</title><path class="cls-1" d="M0,59.71V164a1007.4,1007.4,0,0,1,452.4,0V59.71A1007.3,1007.3,0,0,0,0,59.71"/><path class="cls-2" d="M82.87,126.51Q89,95.16,95.16,63.87l.09-.47.47-.06q5.37-.71,10.74-1.36l.62-.07,6.39,36.72,6.39-38.18.5-.05q5.38-.57,10.76-1.1l.59-.06,12.61,61.15-.74.06q-5.39.45-10.77,1l-.61.06-6.39-37.23-6.4,38.53-.5.05q-5.37.58-10.74,1.23l-.63.07-6.38-37.06-6.37,38.68-.49.07q-5.36.72-10.72,1.49l-.92.13Z"/><path class="cls-2" d="M156.46,57.18l.61,0q5.32-.38,10.65-.69l.7,0v62.26l-.62,0q-5.31.32-10.63.69l-.71,0Z"/><path class="cls-2" d="M275.46,118.05q-6.11-.29-12.22-.5l-.45,0-.15-.42Q256,98.68,249.32,80.33v36.82h-.67q-5-.1-10-.16H238V54.71h.67q6,.07,12,.2h.45l.15.42Q258,73.78,264.8,92.3v-37l.68,0q5,.19,10,.42l.63,0v62.27Z"/><path class="cls-2" d="M353.9,124.86q-5.27-.67-10.55-1.28l-.58-.07V61.24l.74.09c9.37,1.08,18.85,2.32,28.18,3.66l.57.08v10.7l-.76-.11c-5.61-.81-11.27-1.58-16.85-2.29V88q6.44.82,12.87,1.72l.57.08V100.5l-.75-.1q-6.35-.89-12.69-1.69V125Z"/><path class="cls-2" d="M396.53,131.18q-5.25-.9-10.51-1.73l-.55-.09V67.07l.77.12c9.28,1.48,18.72,3.12,28,4.87l.54.1V82.88l-.78-.15c-5.38-1-11-2-16.73-3v14.6q6.42,1.09,12.83,2.27l.54.1v10.73l-.78-.14q-6.29-1.16-12.59-2.23v26.25Z"/><path class="cls-2" d="M69,94.6a6.65,6.65,0,0,0-4.25-1.4,9.64,9.64,0,0,0-1,.08c-4,.66-13.32,2.24-13.32,2.24a3.11,3.11,0,0,1-.43,0c-.69,0-1-.25-1-1.58V82.55a1.61,1.61,0,0,1,1.27-1.46l8.37-1.46.2,0a1,1,0,0,1,1,.93V86q5.78-1,11.58-1.89V75.55a7.53,7.53,0,0,0-2.32-5.76,6.84,6.84,0,0,0-4.69-1.66,10.38,10.38,0,0,0-1.29.11c-5.86,1-11.72,2-17.48,3.06A9.82,9.82,0,0,0,37.57,81v19.89a6.94,6.94,0,0,0,2,5,6,6,0,0,0,4.22,1.63,8,8,0,0,0,1.34-.13L58,105.18l.44,0h0c.32,0,1.32,0,1.32,1.54v11.53c0,1.78-.44,2.09-1.4,2.33-.12,0-8.26,1.46-8.47,1.46-.71,0-.92-.27-.92-1.78v-4.64L37.57,117.7h0v8.44a7.9,7.9,0,0,0,2.29,5.9A6.08,6.08,0,0,0,44,133.69a6.45,6.45,0,0,0,1.15-.11c7.63-1.43,11.53-2.1,19-3.32a8.31,8.31,0,0,0,5-3.17,10.5,10.5,0,0,0,2.19-6.46V100.49A7.15,7.15,0,0,0,69,94.6"/><path class="cls-2" d="M224.56,116q-6.07-13.73-12.16-27.38l4.82-4.69c1.93-2.1,2.89-3.16,2.89-7.5V63.26c0-4.08-2.81-8.47-9-8.47-9.05.13-16.43.37-25.71.76l-.63,0v62.27l.69,0q5.33-.23,10.66-.39l.64,0V103.26L203.61,97q3.91,9.8,7.83,19.64l.17.42h.45q6-.1,11.89-.11h1ZM206.1,80.42c-2.76,2.79-9.4,9.55-9.4,9.55V65.76c2.5-.08,6.91-.19,9.4-.24h.18c1.66,0,1.92.53,1.92,1.71v8.13a6.24,6.24,0,0,1-2.11,5.06"/><path class="cls-2" d="M319.35,58.84c-6.45-.59-13-1.13-19.6-1.6h-.19c-4.75,0-7.94,3.25-7.94,8.08v45.34a8.53,8.53,0,0,0,8.32,8.86c7.41.52,11.21.84,18.75,1.54.33,0,.65,0,1,0a7.64,7.64,0,0,0,5.62-2.21,8,8,0,0,0,2.13-5.72V67.83a8.71,8.71,0,0,0-8.08-9m-3.82,50.05a1,1,0,0,1-.33.73,1.19,1.19,0,0,1-.78.32h-.14c-2.53-.22-7-.57-9.5-.77a1.41,1.41,0,0,1-1.28-1.29V69.28a1.11,1.11,0,0,1,1.14-1.06h.11c2.53.19,7,.57,9.49.78a1.45,1.45,0,0,1,1.3,1.31Z"/></svg>