<svg id="AW" xmlns="http://www.w3.org/2000/svg" viewBox="0 0 319 200"><defs><style>.cls-1{fill:#b69032;}</style></defs><title>Windsor</title><path class="cls-1" d="M62,168.74c1-.58,2.8-1.55,2.8-2.92v-38.7c0-1.44-1.83-2.32-2.8-2.81H75.38c-1,.52-2.79,1-2.79,2.45v38.67c0,1.37,1.76,2.77,2.79,3.32H62"/><path class="cls-1" d="M121,127.13V170s-30.46-35.23-30.46-35.74v32c0,1.36,1.27,2,2.33,2.53H84.27c.93-.58,2.19-1.06,2.19-2.43V133.07c0-2.42.06-2.48-1.12-3.88-.61-.74-3.81-4.19-5.11-4.89H92.09l24.7,28.94v-26c0-1.44-1.79-2.46-2.78-2.93h9.81c-.94.52-2.77,1.39-2.77,2.82"/><path class="cls-1" d="M149.92,168.73H132.77c.94-.55,2.77-1.71,2.77-3.08V128.93c0-1.43-2.59-4.4-3.53-4.64l18.46-.09c20.47,0,24.58,16.43,24.58,22.46,0,10.83-8.34,22.07-25.14,22.07m-.74-39.5c-1.49,0-4.9-.1-5.83,0V165.1c1.5,0,3.9.1,5.09.1,14.05,0,18.74-9.46,18.74-18.54C167.18,139.19,162.06,129.24,149.18,129.24Z"/><path class="cls-1" d="M197.24,168.91a33.38,33.38,0,0,1-13.61-3.5l-.36-10.79c1.35,4.58,5.6,10.71,13,10.95,7,.22,9.58-4.24,9.58-7.36,0-6.12-6.22-7.51-12.67-10.91s-9.74-6.58-9.74-11.42c0-8.68,9-11.83,15.45-11.62A25.4,25.4,0,0,1,209.59,127l.36,9.44a13,13,0,0,0-11.85-8.86c-5.39-.18-7.52,3.14-7.52,5.88,0,3.89,3.06,5.39,9.72,8.41s13.48,5.34,13.48,14.22c0,8-7.8,13.14-16.52,12.86"/><path class="cls-1" d="M243.89,169.12c-12.83-.48-22.81-10-22.56-23.08.2-11,8.26-22.16,23.57-21.62,10.92.38,22.34,8.57,22.14,23.05-.26,14.91-11.62,22-23.15,21.65m.44-41.4c-8.43-.2-14.8,6.36-14.86,17.65-.06,13.59,7.65,20,15,20.13,8.36.19,14.49-6.3,14.55-17.85C259.08,135.34,252.82,127.92,244.33,127.72Z"/><path class="cls-1" d="M308.39,168.75a7.7,7.7,0,0,1-5.54-3.37c-2.8-4.09-7.27-9.48-9.52-13.1-1.61-2.58-3-5.35-5.72-5.51-.75-.05-2.74-.05-2.74-.05v18.58c0,1.37,1.52,3,2.65,3.46H274.18c1-.5,2.76-2,2.77-3.67V126.52c0-1.43-2-2-3-2.29l14.86-.1c12.89.78,15.81,7.53,15.81,11.7,0,6.72-6.09,9.72-10.52,9.76a10.1,10.1,0,0,1,7,5.1s9.22,12.92,11.39,15.57a7.47,7.47,0,0,0,5.23,2.55l-9.34-.07M288.48,127.4c-1.87-.11-3.61-.09-3.61-.09v16.24s1.74.22,2.8.29c4.23.25,9.18-1.84,9.18-8.13A8.59,8.59,0,0,0,288.48,127.4Z"/><path class="cls-1" d="M49,124.46c1.6.22,3.51.88,3,2.55-.06.44-9.38,26.3-9.38,26.3l-7.81-22.39a15.38,15.38,0,0,1-1.12-4,3.2,3.2,0,0,1,2-2.47h-14a7,7,0,0,1,3.51,3.38c.32.64,1.75,4.26,3.63,9.09-2.77,7.81-6.51,18.25-6.51,18.25s-9.43-25.5-9.54-26c-.39-1.49.92-3.94,2.42-4.67H.13c1.72.65,3.63,3.51,4.26,4.72,1.13,2.27,16.54,40.07,16.54,40.07,4.62-13,7.73-21.21,9.88-27.23C35.37,153.87,41,169.25,41,169.25s13.87-40,14.87-42.47c.59-1.54,2.09-1.37,3.67-2.32H49"/><polyline class="cls-1" points="306.22 125.84 309.92 125.84 309.92 126.82 308.68 126.82 308.68 129.78 307.46 129.78 307.46 126.82 306.22 126.82 306.22 125.84"/><polyline class="cls-1" points="310.46 125.84 312.06 125.84 312.68 128.24 313.29 125.84 314.89 125.84 314.89 129.78 313.89 129.78 313.89 126.78 313.13 129.78 312.22 129.78 311.45 126.78 311.45 129.78 310.46 129.78 310.46 125.84"/><path class="cls-1" d="M134.54,79.84a4,4,0,0,1-.46.62,25.77,25.77,0,0,0,8.24,10,4.15,4.15,0,0,1,.49-.48,25,25,0,0,1-8.27-10.11"/><path class="cls-1" d="M134.18,58.89a3.92,3.92,0,0,1,.43.65,25.08,25.08,0,0,1,8.56-10.22,4.25,4.25,0,0,1-.57-.42,25.75,25.75,0,0,0-8.42,10"/><path class="cls-1" d="M180.22,59.46a4.22,4.22,0,0,1,.44-.63,25.67,25.67,0,0,0-8.45-10,5.75,5.75,0,0,1-.58.42,25,25,0,0,1,8.59,10.18m.07,20.46a25,25,0,0,1-8.24,10c.17.15.32.31.47.48a25.75,25.75,0,0,0,8.23-9.93A4.27,4.27,0,0,1,180.29,79.92Z"/><path class="cls-1" d="M141,45.25a3.36,3.36,0,0,1-1.44-2.75,3.44,3.44,0,0,1,.19-1.09A33.2,33.2,0,0,0,135,45.08a1.61,1.61,0,0,1,0,.66,1.45,1.45,0,0,1-.6,1l-.23.15-.35,0-.22,0a1.47,1.47,0,0,1-.5.61l.35-.06h.1l.19,0a1.6,1.6,0,0,1,1,.72,2,2,0,0,1,.18,1.55,2.2,2.2,0,0,1-2.13,1.81l-.06.05a2.75,2.75,0,0,1-1,2.24,3.17,3.17,0,0,1-1.47,2.62v.12a3.45,3.45,0,0,1,1,1,2.54,2.54,0,0,1,.45-.07,3.09,3.09,0,0,1,1.14.22,4.09,4.09,0,0,1,.66.34A26.67,26.67,0,0,1,142,48a5.63,5.63,0,0,1-.7-1.22,4.36,4.36,0,0,1-.3-1.58"/><path class="cls-1" d="M181.59,58.23a3.66,3.66,0,0,1,.87-.49,3.39,3.39,0,0,1,1-.21,3.47,3.47,0,0,1,1.38-1.25,3.07,3.07,0,0,1-1.27-2.44,2.71,2.71,0,0,1-1-2.24l-.07-.07a2.22,2.22,0,0,1-2.12-1.8,2,2,0,0,1,.19-1.55,1.61,1.61,0,0,1,1-.71l.1,0h.19a1,1,0,0,1,.36.06,1.49,1.49,0,0,1-.51-.62l-.22,0h-.28l-.3-.18a1.42,1.42,0,0,1-.6-1,1.67,1.67,0,0,1,0-.45,33.26,33.26,0,0,0-3.84-3.07l0,.18a3.38,3.38,0,0,1-2.2,3.16,4,4,0,0,1-.26,1.17,5.16,5.16,0,0,1-.87,1.44,26.76,26.76,0,0,1,8.44,10"/><path class="cls-1" d="M135.21,99.38l-18.77.05s-.79-1-1.67-2.28-1.74-2.05-1.94-2.43h1.47l1,1.41a3.23,3.23,0,0,0,3.17,1.93c1.27,0,1.71-1.52,1.24-3.41l.87.05a4.31,4.31,0,0,0,4,3.32c1.78,0,2.45-1.55,2-3.44h.7A4.65,4.65,0,0,0,130.87,98a4.73,4.73,0,0,0,2.3-.29c.4.86,2,1.69,2,1.69"/><path class="cls-1" d="M134,82.27a1.34,1.34,0,0,1-.52,1l-.24.17-.37,0h-.08a1.47,1.47,0,0,1-.12.55l0,0,.22.17.12.11a1.76,1.76,0,0,1,.63.89,2,2,0,0,1,1,1.8,2.91,2.91,0,0,1-.11,1q.32.44.69.89a14.57,14.57,0,0,0,4.49,3.32,1.85,1.85,0,0,1,.56.34,2.29,2.29,0,0,1,.65,1.13l.35,0a4.5,4.5,0,0,1,.29-1.53,5.06,5.06,0,0,1,.46-.9,26.74,26.74,0,0,1-8-9"/><path class="cls-1" d="M181.08,99.32h18.22s.79-1,1.67-2.27,1.75-2.05,1.94-2.43h-1.47l-1,1.42A3.23,3.23,0,0,1,197.29,98c-1.27,0-1.71-1.51-1.24-3.41l-.87.05a4.32,4.32,0,0,1-4,3.32c-1.79,0-2.45-1.55-2-3.44h-.7a4.64,4.64,0,0,1-3.64,3.39,3.52,3.52,0,0,1-1.7-.12c-.4.85-2.09,1.56-2.09,1.56"/><path class="cls-1" d="M175.07,92.51a1.72,1.72,0,0,1,.55-.34,14.53,14.53,0,0,0,4.51-3.35c.24-.29.46-.58.67-.86a3,3,0,0,1-.11-1,2,2,0,0,1,1-1.8,1.79,1.79,0,0,1,.63-.88l.14-.12.21-.16,0,0a1.78,1.78,0,0,1-.12-.56h-.37l-.32-.2a1.55,1.55,0,0,1-.4-1.8,26.77,26.77,0,0,1-8.14,9.63,5.23,5.23,0,0,1,.52,1,4.5,4.5,0,0,1,.29,1.81l.27,0a2.4,2.4,0,0,1,.73-1.38"/><path class="cls-1" d="M147.29,105.18a13.57,13.57,0,0,1-5.61-1.39l-34,.09c-2.11,0-3.4.53-3.39,2.32,0,0,17.13-.41,28.31-.55l16.58-.14a3.25,3.25,0,0,1-.35-.5,7.7,7.7,0,0,1-1.58.16m60.86-1.57-34.34.1a13.47,13.47,0,0,1-5.65,1.42,7.22,7.22,0,0,1-1.53-.16,3.57,3.57,0,0,0-.28.55l22.65.42,22.79.41C211.76,104.56,210.25,103.6,208.15,103.61Z"/><path class="cls-1" d="M138,100.82l-1.6-.78-21.45.07a3.11,3.11,0,0,0-3.21,3v.06l29-.08a9.86,9.86,0,0,1-2.35-1.88l-.36-.4m61.58-.94-19.72.06-2.33.76-.36.4a9.82,9.82,0,0,1-2.34,1.9l28-.08v-.06A3.11,3.11,0,0,0,199.56,99.87Z"/><path class="cls-1" d="M176.46,97.31c-1.27,0-2.46-1.73-2-3.62l-.34-.14a9.38,9.38,0,0,1-.48,1.79,2.72,2.72,0,0,1-1.28,1.14,4.64,4.64,0,0,1-2.1,1.27,6,6,0,0,0,1.8,1.29l3.1,0,0,0,.21-.09.49-.24.56.26.08.07c.62,0,.47,0,.47,0,1.13-.5,1.24-2.33,1.24-2.33a2.54,2.54,0,0,1-1.76.68"/><path class="cls-1" d="M138.91,99l.43-.3.47.23.2.08.07,0,.13.07,3,0A8,8,0,0,0,146,96.66a6.06,6.06,0,0,1-3.12-.15,2.73,2.73,0,0,1-1.19-1.08,11.19,11.19,0,0,1-.43-1.92h-.34c.47,2.64-.78,3.93-2,3.93-.88,0-.88.13-1.41-.25a2.28,2.28,0,0,0,1,1.55s-.23.35.39.36l.11-.09"/><path class="cls-1" d="M154,85.38l-14.48,0s-.55-.61-1.12-1.37a10.06,10.06,0,0,1-.95-1.44l.3-.08.33.59a3.43,3.43,0,0,0,3.1,1.47c1.79,0,3.25-.94,3.24-2.08h.29c0,1.14,1.46,2.07,3.25,2.07s3.24-.94,3.23-2.09h.29c0,1,1.22,1.91,2.8,2.06"/><path class="cls-1" d="M152.59,89.25h-9.25a12.56,12.56,0,0,1-1.85-1.4,3,3,0,0,1-.88-1.46l.27-.07.31.6a3.1,3.1,0,0,0,2.88,1.49c1.66,0,3-1,3-2.12h.27c0,1.17,1.36,2.11,3,2.11s3-1,3-2.12h.27a21.37,21.37,0,0,1-1,3"/><path class="cls-1" d="M161.93,85.56l14.48,0s.55-.6,1.11-1.38a9.7,9.7,0,0,0,.94-1.44l-.3-.07-.32.58a3.42,3.42,0,0,1-3.1,1.48c-1.79,0-3.25-.92-3.25-2.06h-.3c0,1.15-1.45,2.08-3.24,2.08s-3.24-.92-3.25-2.06h-.29c0,1-1.21,1.92-2.78,2.06"/><path class="cls-1" d="M163.67,89.21l9.25-.06a12.75,12.75,0,0,0,1.86-1.41,3.16,3.16,0,0,0,.87-1.47l-.28-.08-.3.6a3.09,3.09,0,0,1-2.87,1.51c-1.66,0-3-.94-3-2.11h-.27c0,1.17-1.35,2.12-3,2.13s-3-.94-3-2.11h-.27a21.3,21.3,0,0,0,1,3"/><path class="cls-1" d="M163.69,90.6s-.9.8-5.39.81-6.09-.71-6.09-.71l3.27-8h4.82l3.39,8"/><polyline class="cls-1" points="139.12 78.58 153.17 78.55 152.23 76.29 140.12 76.32 139.12 78.58"/><polyline class="cls-1" points="139.13 81.94 153.18 81.9 153.17 78.97 139.12 79.01 139.13 81.94"/><polyline class="cls-1" points="152.45 59.06 152.4 59.06 152.4 59.05 139.78 59.09 139.78 59.09 139.73 59.09 140.54 60.95 151.67 60.92 152.45 59.06"/><polyline class="cls-1" points="152.74 54.96 150.69 54.97 150.69 56.55 148.97 56.56 148.97 54.97 146.93 54.97 146.94 56.56 145.22 56.57 145.21 54.98 143.18 54.99 143.18 56.58 141.46 56.58 141.45 54.99 139.41 54.99 139.42 56.64 139.42 58.66 152.75 58.63 152.74 54.96"/><path class="cls-1" d="M151.37,61.45l.49,14.31-11.5,0,.36-14.29,10.65-.05m-6.6,10.91V69.91s-.18-.65-.65-.65-.64.66-.64.66v2.45Zm-.07-6.66V63.25s-.18-.64-.65-.64-.65.65-.65.65V65.7Zm4.75,3.36V66.61s-.19-.65-.66-.65-.65.66-.65.66v2.45Z"/><polyline class="cls-1" points="162.03 78.52 176.09 78.49 176.09 78.48 175.15 76.23 163.04 76.26 162.03 78.52"/><polyline class="cls-1" points="162.05 81.88 176.1 81.83 176.09 78.91 162.03 78.95 162.05 81.88"/><polyline class="cls-1" points="175.36 59 175.31 59 175.31 58.99 162.7 59.02 162.7 59.03 162.65 59.03 163.45 60.89 174.6 60.86 175.36 59"/><polyline class="cls-1" points="175.65 54.89 173.61 54.9 173.62 56.49 171.89 56.49 171.89 54.91 169.85 54.91 169.86 56.5 168.14 56.5 168.14 54.91 166.09 54.92 166.1 56.51 164.37 56.51 164.37 54.93 162.34 54.93 162.34 56.58 162.35 58.6 175.67 58.57 175.65 54.89"/><path class="cls-1" d="M174.34,61.41l.45,14.29-11.51,0,.42-14.31h10.64m-2.69,10.88V69.84s-.17-.65-.64-.65-.65.65-.65.65V72.3Zm0-6.67V63.18s-.18-.65-.65-.65-.65.65-.65.65v2.45ZM166.95,69V66.57s-.18-.65-.65-.65-.65.65-.65.65V69Z"/><path class="cls-1" d="M160,81.88l0-6.76c0-.25-.09-1.91-2.45-1.9s-2.42,1.67-2.42,1.92l0,6.76H160"/><path class="cls-1" d="M152.13,69.32l.22,6.44h.19l1.12,2.68V81.9h.94l0-7.16s.2-2.12,3-2.13,3,2.12,3,2.12l0,7.16h1V78.42l1.11-2.68h.18l.19-6.44-10.9,0m8.76-7.87v1.9h-2v-1.9h-2.69v1.91h-2v-1.9h-2.35l.22,7.1h2.15V67.08s-.23-1.5,1-1.51,1,1.5,1,1.5v1.49h2.7V67.06s-.22-1.5,1-1.5,1,1.5,1,1.5v1.49h2.15l.17-7.1Z"/><path class="cls-1" d="M143.7,43.11c-1.5.2-2.17,1.71-1.51,3.37a4,4,0,0,0,3.9,2.65c1.49-.2,2.17-1.71,1.51-3.37a4,4,0,0,0-3.9-2.65"/><path class="cls-1" d="M171.65,43c1.5.19,2.18,1.7,1.53,3.36a4.06,4.06,0,0,1-3.89,2.67c-1.49-.19-2.18-1.7-1.52-3.36A4,4,0,0,1,171.65,43"/><path class="cls-1" d="M171.44,95.81c1.47-.21,2.14-1.74,1.49-3.44a4,4,0,0,0-3.85-2.7c-1.47.2-2.14,1.74-1.48,3.44a4,4,0,0,0,3.84,2.7"/><path class="cls-1" d="M143.88,95.89c-1.48-.2-2.15-1.73-1.51-3.44a4,4,0,0,1,3.83-2.72c1.47.2,2.15,1.73,1.51,3.43a4,4,0,0,1-3.83,2.72"/><path class="cls-1" d="M119.36,45.27s0-.77,0-1.17-.92,0-1.33-.17-2.26-.19-2.41-.65-1.25-.1-1.76-.11-2.68,0-2.68,0a3.65,3.65,0,0,1-1.41-.64c-.57-.47-1.42.06-2.18-.1a3.25,3.25,0,0,1-1.16-.48s-.42,0-.18,1.24a5.91,5.91,0,0,0,1,2c-.8.37-5.3,2.64-5.72,7-.46,4.81,4.36,9.07,4.08,8.18a13.18,13.18,0,0,1-.32-4.49,8.86,8.86,0,0,1-.94-5.3c.47-2.33,2.9-4.25,3.45-4.65l.19.24.18.1c-.82.7-2.85,2.56-3.06,4-.28,1.77-.3,3.08,1.56,6.73,2.47,4.85,6.15,4.93,6.15,4.93a20.63,20.63,0,0,1-1.72-3.58c-.4-1.4-.88-2.66-.88-2.66s-2.47-3-2.52-5.46a4.38,4.38,0,0,1,1.45-3.44l.59.32c-1.52,1.13-1.67,3.33-.66,5.85,1.21,3,5.45,5,4.87,4.49s-1.55-3.52-1.79-4.14-1.22-2.23-1.63-3.28a3.82,3.82,0,0,1-.13-2.58l.5.26s0,.54,0,1.4a4.18,4.18,0,0,0,1.79,3.2c1.17.64,3.19-.58,3.19-.58s.66.93.91.93.1-1.16.1-1.16a6.44,6.44,0,0,1,.91,1.18c.49.78,1.67.1,1.67.1l-.74-.55c-.42-.32-.24-.86.35-1S119,50,119,50s-1.42.07-2.59.21a2.14,2.14,0,0,1-2.16-.81c-.5-.55,1.61-2.38,2.11-2.38s.58.62,1.24.87a1.5,1.5,0,0,0,1.67-.37c.51-.46.12-2.25.12-2.25m-10.12,0a3.34,3.34,0,0,1-1.41-.8c-.34-.47-1-1.64-1-1.64a3.62,3.62,0,0,1,1.84.8A2.66,2.66,0,0,1,109.24,45.3Zm4.42.68c-1,.22-1.17-.48-1.17-.48s-.76.69-1.67-.33a2.48,2.48,0,0,0,1.68-.36,5.71,5.71,0,0,1,2-.67S114.67,45.76,113.66,46Zm4.24,19.87-2.25-.77s-.25,2.26,1,3.36a8.15,8.15,0,0,0,2.92,1.28,10,10,0,0,0-.64-1.87C118.42,66.85,117.9,65.84,117.9,65.84Zm-5.84-24.07c-1.42.13-1.85.21-1.85.21l1.45.84s1.8-.11,2.72-.24S113.48,41.64,112.06,41.77Zm-3.92-1c-1.42.13-1.84.21-1.84.21L108,42.17s1.51-.44,2.44-.59S109.56,40.64,108.13,40.78Zm-2.42,2.73V42.7a2.45,2.45,0,0,0-3.82,2,4.16,4.16,0,0,1,2.26-1.31A4.23,4.23,0,0,1,105.72,43.51Zm.89,1.58-.82-1a2.77,2.77,0,0,0-2.14.39,4.44,4.44,0,0,0-1.7,5.09,5.69,5.69,0,0,1,2.16-3.36A8.51,8.51,0,0,1,106.61,45.08ZM133.82,72a1.23,1.23,0,0,0,1.32,0,.72.72,0,0,1,.92.68c0,.21.07.39.27.38a1.15,1.15,0,0,0,.6-.92,1.2,1.2,0,0,0-.69-1.18l.11-.28c.3-1.23-1.65-1.58-1.57-1.88s1-.3,1.68-.6c.27-.13.35-.46.32-.87a.69.69,0,0,1,1.1.14.27.27,0,0,0,.49-.08,1.07,1.07,0,0,0-.1-.82A1.37,1.37,0,0,0,136.5,66l-.08.07a2.29,2.29,0,0,0-.35-.52c-.59-.63-2.23,1-2.52.82s.85-1,1-1.62a1.06,1.06,0,0,0-.07-.76h0l-.06-.08-.28-.37c-.06-.19-.17-.55.61-.81.5-.18.48-.27.41-.44s-.34-.46-1.23-.2a1.3,1.3,0,0,0-1,1h-.17c-1.6-.1-1,2.7-1.14,3.08a1.19,1.19,0,0,1-1.42.3,25,25,0,0,0-3.07-1.91,46.18,46.18,0,0,1-5.48-3c-.67-.55-.82-1.17-2.16-1.81A8.54,8.54,0,0,0,116.8,59c.66.32,1,2.59,1.15,4.52a15.52,15.52,0,0,0,1,2.89c.06.13.38.21.73.27a21.89,21.89,0,0,0,1,2,2.77,2.77,0,0,0,2.11,1c.21-.1-.24-.84-.53-1.3s-.2-.69,0-.79l.71.24c.34.41.55,1.27,1.13,2.09a2.81,2.81,0,0,0,2.13,1c.19-.1-.25-.84-.53-1.31s-.22-.66-.07-.76l.31.14c.32.43.53,1.23,1.09,2a2.78,2.78,0,0,0,2.12,1c.2-.1-.25-.84-.54-1.3s-.22-.57-.13-.69c.19-.38.64-.17.64-.17a2.85,2.85,0,0,1,.62.17c.34.16.24,1.25.4,1.79a.81.81,0,0,0,.5.49,1.2,1.2,0,0,0,.44,1.53c.72.57,1.09.44,1.23.3s.17-.23-.21-.57a.63.63,0,0,1,0-1.08l.21,0c1.09-.14,0-1.86.36-2S133.24,71.44,133.82,72Zm-16-7c-.49-.48-.73-2.57-.94-4.29s-1.58-2.11-3-2.55a7.73,7.73,0,0,1-2.63-1.75c.1,1.93,1.67,4.95,2.57,6.46S118.36,65.56,117.81,65Zm-3.12,15.24c.59-.77,2.84.11,3.08.81s-.77,1.77.05,2.72l.15.13,0,0h0l.06,0c.38.3.54,1.23,1.12,2.11a2.34,2.34,0,0,0,1.82.93c.15-.08-.24-.81-.49-1.23-.39-.69,0-.8.24-.81l.25.07c.25.43.46,1.13.89,1.82a2.29,2.29,0,0,0,1.81.92c.16-.09-.22-.78-.48-1.23-.47-.81.11-1.09.29-.72a15.81,15.81,0,0,0,.9,1.61,2,2,0,0,0,1.69.85c.16-.09-.1-.71-.36-1.15-.56-1,.57-.81.63-.8.41.08,0,.69.14,1.55a.88.88,0,0,0,.54.63,1.23,1.23,0,0,0,.54,1.27c.71.57.95.32,1.08.19s.05-.32-.07-.47c-.57-.68-.09-1,.18-1.2l.25-.16c1-.76-.32-1.41,0-1.48s.66.33,1.66.87c.82.46,1.13.18,1.51-.57.34,0,.69-.14.74.48s.12.56.31.56.45-.21.42-1.07c0-1.1-.72-1.1-1-1.14.16-.57-.07-.66-.47-1s-2.26.12-2.42-.35,1.26-.52,1.76-.67.39-.68,0-1.5c.25-.18.49-.29.66-.2.44.26.56.45.72.34a.75.75,0,0,0,0-.86,1.24,1.24,0,0,0-1.75-.49,1.45,1.45,0,0,1-.39.18c-.65-.55-1.5.46-1.5,1.11s0,.8-.43.17.35-1.32-.95-1.57a.68.68,0,0,1,.13-.77c.46-.28.62-.21.56-.38s-.32-.52-1.2-.21a1.11,1.11,0,0,0-.85,1.22l-.13.14c-.49.09-.69.31-.6.81.15.93,1.1,1.79.43,1.78s-4.58-1.38-4.75-1.76,1.11-1.37,1.79-3c.39.64,1.93,1,1.93,1a4.43,4.43,0,0,0-.38-1.87c-.41-1.29-.89-1-1.07-1l0,.07c.61.3,1.93-.3,1.93-.3a5,5,0,0,1-.9-1.14c-.19-.47-.38-1-1.29-1a1.18,1.18,0,0,0-1,.43A16.43,16.43,0,0,0,121,73.92c-1.4-.95-3.93-.05-4.44,0A2.21,2.21,0,0,0,115.26,75c-.26.46-1.35.37-1.6.76S114.69,80.29,114.69,80.29ZM95,56.17a4.67,4.67,0,0,0,2,1.65c.14,0,.54.1,1,.15a4.67,4.67,0,0,0,.91,1.43c.48.52,3.63,2.57,3.49,5.47a4.42,4.42,0,0,1-.11.44c-.12.17-.48.52-.82-.26-.19-.45-.51-1.15-.68-1.08a2,2,0,0,0-.33,1.83,19.58,19.58,0,0,0,.9,1.74l-.12.2s-.46.74-.87-.19c-.19-.43-.51-1.14-.68-1.07a2,2,0,0,0-.33,1.83,9.17,9.17,0,0,0,.74,1.41c0,.06-.47.71-.87-.2-.19-.44-.51-1.14-.68-1.08a2,2,0,0,0-.32,1.83c.22.59.76,1.54.74,1.57s-.47.37-.77-.32c-.19-.45-.51-1.14-.68-1.08a2,2,0,0,0-.33,1.83,12.29,12.29,0,0,0,.8,1.51,11.48,11.48,0,0,0-1.21,4.43c-.12,4.68,2.77,6.45,5.67,4.92,1.22-.65,1.76-2.33,2.28-3.58l0,0c.52,2.2,1.61,4,1.57,4.41-.1.78-.54,2.4-2,2.69s-1.68.21-1.85,1a3,3,0,0,0-.1.62c0,.48-.8,1.11-1.35,2.08a2,2,0,0,0,.08,1.92c.17.09.62-.58.89-1s.62-.49.79-.32l0,.17c-.09.46-.83,1.08-1.32,2a1.92,1.92,0,0,0,.12,1.91c.16.09.6-.59.87-1,.35-.59.64-.48.8-.33l.05.25c-.07.47-.59,1.17-.83,2.08a2,2,0,0,0,.54,1.85c.18,0,.46-.71.62-1.18a1,1,0,0,1,.25-.45,5.43,5.43,0,0,0,.28.71l.11.19a12.65,12.65,0,0,0-.38,1.83,2.08,2.08,0,0,0,.9,1.73c.2,0,.31-.78.38-1.27s.22-.6.4-.62c.29.27.53.44.66.57.33.32-.59.78-.51,1.24l.18.29a1.31,1.31,0,0,0-.25,1.19c.21.75,1.32.79,1.52.66s-.17-.5-.35-.76a.65.65,0,0,1,0-.55.77.77,0,0,0,1-.67c.19-.82.09-.84.35-1s.66,1.16,1.32,1.48c.23.11.61-.07,1-.36.33,0,.63,0,.57.64s0,.58.22.59.68-.15.79-1a1,1,0,0,0-.72-1.25c.18-.34.21-.64-.06-.77-.84-.4-1.76.21-1.76-.19s.68-.84,1.18-.84,1.85.17,1.44-1.2a1,1,0,0,1,.47.13c.42.29.53.13.53-.08a1.12,1.12,0,0,0-.39-.8,1.35,1.35,0,0,0-1.23-.34l-.28-.11c-.92-.18-1.19,1.07-1.69.91s.77-1.23.44-1.63a1.69,1.69,0,0,0-.66-.36c0-.23.12-.46.55-.61s.48-.23.42-.39-.33-.49-1.22-.23a1.27,1.27,0,0,0-1,1c-.15,0-.26.06-.29.14-.17.38.39,1.94-.11,1.93s-1.75-6.07-1.07-7.46c.44-.88,1.17-.72,2.2-1l-.14.16c-.39.47.25,2.15.25,2.15a4.79,4.79,0,0,1,1-1.08,1.76,1.76,0,0,0,.77-.77,7,7,0,0,0,.59,1.13,4.67,4.67,0,0,1,.71-1.24c.37-.37.83-.77.45-1.54a1.17,1.17,0,0,0-.74-.66c1.86-1.56,3.27-2.62,1.86-7.23-1.6-5.22,0-3.49,1.06-4.42s1.69-.91,3-1.82a5.88,5.88,0,0,0,1.95-2.53l-2.75-1s.49.52.14,1c-1,.3-3.35-1.32-4.56-2.38a12.52,12.52,0,0,1-2.14-1,3.74,3.74,0,0,1-.88,2.75c-1.11,1.31-1.85,2.29-3.16,3.69a6,6,0,0,0-1.42,2.64,4.4,4.4,0,0,0-1,.74,4.46,4.46,0,0,0-.7,1.52s-.73,2.75-1.38,3.15c-1.84,1.15-3.22-1-3-2.82.61-4.69,4-9,5.17-12.37,0,0,.19-.54.24-.81a4.56,4.56,0,0,0,.1-1.82h0c-.24-2.28-2-3.44-3.62-4.85a5.55,5.55,0,0,1-.92-.95h0c.72-.71.14-2.38-.5-3.84s-.57-2.87-1.52-3.92a5.76,5.76,0,0,0-3.46-1.45c-.37.08,1.53,1.07,1.84,1.72a11,11,0,0,1,.56,2S95,50.07,94.36,50s.32.26.34,1.41a4.12,4.12,0,0,0,.85,2.54c.46.69.85,1.43.85,1.43a16.59,16.59,0,0,1-2.29-1.69C93.51,53.07,94.47,55.27,95,56.17Zm38.78-11.39a1.23,1.23,0,0,0-1.69-.36l-.24,0c-.22-.29-.36-.37-.56-.37-.58,0-1.38,1.88-1.69,1.85s.1-1.09.11-1.71c0-.25-.23-.44-.56-.56,0-.26.1-.54.62-.67s.49-.12.45-.29-.29-.59-1.2-.4-1.16.9-1.17,1.21l-.31.07c-.75.21.19,2.59-.2,2.79s-.2-.59-.62-.87h0l-.05,0-.32-.13a.62.62,0,0,1-.22-1c.29-.42.19-.48,0-.58s-.54-.18-1.09.51a1.18,1.18,0,0,0,0,1.71h0a1.82,1.82,0,0,0-.2,1.49,3,3,0,0,0,1.85,1.48,4.69,4.69,0,0,1-.86,1.85c-.4.64-4,5.23-4,5.23a15.58,15.58,0,0,1,.9,2.06,9.34,9.34,0,0,1,.53,3.68h0c.35-.42,1.51-.3,2.72-.7a2.5,2.5,0,0,0,1.5-1.68c-.06-.2-.94,0-1.49.18s-.82,0-.84-.25l.17-.23c-.13.25-.2.36-.12.26.32-.46,1.46-.44,2.63-.95a2.48,2.48,0,0,0,1.33-1.8c-.07-.2-.93.1-1.46.31s-.84,0-.89-.21l0,0c.45-.31,1.45-.35,2.47-.79A2.48,2.48,0,0,0,130.81,54c-.08-.19-.93.11-1.46.3-.71.28-.87,0-.88-.27.51-.22,1.38-.3,2.26-.68a1.85,1.85,0,0,0,1.07-1.66c-.08-.19-.67,0-1.2.17-1.16.44-.84-.6-.84-.6l-.06.09c.23-.49.36-.78.36-.78a6.16,6.16,0,0,0,1.67.48.92.92,0,0,0,.66-.55l.21.1a1.32,1.32,0,0,0,1.4-1.1c.2-.84-.28-1.11-.46-1.16s-.15,0-.29.47-.42.59-.69.58c0-.29,0-.55-.05-.74-.08-.62-1.77-.57-1.83-.88s2.1-.83,2.11-1.37a2.29,2.29,0,0,0-.26-.85c.26-.14.49-.18.94.11.16.11.28.37.43.26S134.35,45.48,133.81,44.78ZM116.38,69.6a15.71,15.71,0,0,1-1.15-2.92,6.05,6.05,0,0,1-.07-1.73,11,11,0,0,1-2.36-2.21,6.21,6.21,0,0,1-1.9-.61A5.45,5.45,0,0,0,112,66.26,11,11,0,0,0,116.38,69.6Zm-5.08-3c-.91-.94-1-4.43-1-4.43a8.52,8.52,0,0,1-2.42-2.31,17,17,0,0,1-2-3.32s-.38,4.41,1.43,6.77S112.2,67.5,111.3,66.55Zm10.24-9.8A6.18,6.18,0,0,0,117.48,54c-2.6-.5-5-1.23-5-1.23,1.1,1.29,1.39,3.61,2.49,4.67s3.15,1.09,4.5,1.46,2.67,2.68,3.12,2.55S122.48,58,121.54,56.75Z"/><path class="cls-1" d="M121.7,44.59s1.75,2.06.13,3-2.29.59-3.81.74-2.73,1-2.48,1.62,1.1.09,1.1.09.26-.7,1.44-.84,3.62,1.62,5.17-.33.56-4.31-1.55-4.26"/><path class="cls-1" d="M196.08,47.52a1.5,1.5,0,0,0,1.67.37c.67-.25.75-.87,1.25-.87s2.62,1.83,2.11,2.38a2.14,2.14,0,0,1-2.16.81c-1.17-.14-2.6-.21-2.6-.21s-.66,1.1-.07,1.25.76.69.35,1l-.75.55s1.18.68,1.67-.1a6.31,6.31,0,0,1,.91-1.18s-.16,1.16.1,1.16.91-.93.91-.93,2,1.21,3.19.58a4.18,4.18,0,0,0,1.79-3.2c0-.86,0-1.4,0-1.4l.5-.26A3.8,3.8,0,0,1,204.8,50c-.41,1.06-1.39,2.65-1.62,3.28S202,57,201.39,57.47,205,56,206.25,53c1-2.52.87-4.72-.65-5.85l.59-.32a4.37,4.37,0,0,1,1.46,3.44c-.06,2.49-2.52,5.46-2.52,5.46s-.49,1.26-.88,2.66a20.75,20.75,0,0,1-1.72,3.58s3.67-.08,6.14-4.93c1.85-3.65,1.83-5,1.56-6.73-.22-1.42-2.25-3.28-3.07-4l.18-.1.2-.24c.54.4,3,2.32,3.45,4.65a8.82,8.82,0,0,1-.94,5.3,13,13,0,0,1-.32,4.49c-.27.89,4.55-3.38,4.08-8.18-.41-4.38-4.92-6.64-5.72-7a5.67,5.67,0,0,0,1-2c.24-1.24-.17-1.24-.17-1.24a3.26,3.26,0,0,1-1.16.48c-.76.16-1.61-.37-2.18.1a3.65,3.65,0,0,1-1.4.64s-2.18-.05-2.68,0-1.59-.36-1.76.11-2,.49-2.41.65-1.34-.22-1.33.17,0,1.17,0,1.17-.4,1.79.12,2.25m10.57-3.86a3.6,3.6,0,0,1,1.83-.8s-.65,1.17-1,1.64a3.35,3.35,0,0,1-1.41.8A2.66,2.66,0,0,1,206.64,43.66Zm-5.85.46a5.74,5.74,0,0,1,2,.67,2.46,2.46,0,0,0,1.67.36c-.9,1-1.67.33-1.67.33s-.16.69-1.16.48S200.79,44.13,200.79,44.13Zm-4.38,23.72a10,10,0,0,0-.64,1.87,8.15,8.15,0,0,0,2.92-1.28c1.24-1.1,1-3.36,1-3.36l-2.26.77S196.89,66.85,196.42,67.84Zm4.51-25.26c.92.14,2.72.24,2.72.24L205.1,42s-.43-.07-1.84-.21S200,42.43,200.93,42.58Zm3.93-1c.92.15,2.43.59,2.43.59L209,41s-.42-.07-1.84-.21S203.93,41.44,204.85,41.58Zm6.3,1.83a4.18,4.18,0,0,1,2.26,1.31,2.45,2.45,0,0,0-3.82-2v.81A4.23,4.23,0,0,1,211.16,43.41Zm0,2.78a5.68,5.68,0,0,1,2.16,3.36,4.44,4.44,0,0,0-1.7-5.09,2.76,2.76,0,0,0-2.14-.39l-.83,1A8.55,8.55,0,0,1,211.2,46.19ZM182.64,70.35c.34.16-.73,1.87.37,2l.21,0a.63.63,0,0,1,0,1.08c-.38.34-.34.44-.21.57s.51.27,1.23-.3a1.19,1.19,0,0,0,.44-1.53.79.79,0,0,0,.5-.49c.16-.55.06-1.63.4-1.79a2.88,2.88,0,0,1,.62-.17s.46-.21.65.17c.09.12.09.32-.14.69s-.73,1.2-.54,1.3a2.78,2.78,0,0,0,2.12-1c.56-.77.77-1.58,1.09-2l.31-.14c.16.11.21.33-.07.76s-.73,1.2-.53,1.31a2.82,2.82,0,0,0,2.13-1c.58-.82.78-1.68,1.12-2.09l.71-.24c.2.09.3.31,0,.79s-.74,1.21-.53,1.3a2.77,2.77,0,0,0,2.11-1,21.44,21.44,0,0,0,1-2c.36-.06.67-.14.74-.27a15.52,15.52,0,0,0,1-2.89c.18-1.93.48-4.2,1.15-4.52a8.57,8.57,0,0,0-2.71.75c-1.33.64-1.48,1.26-2.15,1.81a46.25,46.25,0,0,1-5.48,3,25,25,0,0,0-3.07,1.91,1.18,1.18,0,0,1-1.42-.3c-.18-.39.46-3.19-1.14-3.08h-.17a1.3,1.3,0,0,0-1-1c-.9-.26-1.16,0-1.23.2s-.09.26.41.44c.78.26.67.62.61.81l-.28.37-.06.08h0a1,1,0,0,0-.07.76c.17.62,1.32,1.44,1,1.62s-1.94-1.45-2.52-.82a2.29,2.29,0,0,0-.35.52l-.08-.07a1.37,1.37,0,0,0-1.76.49,1.08,1.08,0,0,0-.11.82.27.27,0,0,0,.49.08.7.7,0,0,1,1.1-.14c0,.4,0,.74.32.87.67.3,1.59.29,1.68.6s-1.86.65-1.58,1.88l.12.28a1.2,1.2,0,0,0-.7,1.18,1.15,1.15,0,0,0,.6.92c.2,0,.23-.16.27-.38a.72.72,0,0,1,.92-.68,1.23,1.23,0,0,0,1.32,0C182.08,71.44,182.31,70.2,182.64,70.35Zm18.83-7.44c.9-1.51,2.47-4.53,2.57-6.46a7.75,7.75,0,0,1-2.63,1.75c-1.38.44-2.76.83-3,2.55S198,64.56,197.5,65,200.56,64.42,201.47,62.91Zm.19,12.86c-.25-.38-1.34-.29-1.6-.75a2.22,2.22,0,0,0-1.35-1.07c-.51-.08-3-1-4.44,0A16.13,16.13,0,0,0,192.78,75a1.16,1.16,0,0,0-1-.43c-.91,0-1.11.58-1.29,1a5,5,0,0,1-.9,1.14s1.31.6,1.93.3l0-.07c-.18,0-.66-.31-1.07,1a4.52,4.52,0,0,0-.38,1.87s1.55-.34,1.94-1c.68,1.62,1.93,2.64,1.78,3s-4.07,1.75-4.74,1.76.28-.85.43-1.78c.09-.5-.11-.72-.6-.81l-.13-.14a1.1,1.1,0,0,0-.85-1.22c-.87-.32-1.13,0-1.2.21s.11.11.57.38a.66.66,0,0,1,.13.77c-1.3.25-.54,1-.95,1.57s-.41.53-.42-.17-.85-1.66-1.5-1.11a1.34,1.34,0,0,1-.39-.18,1.25,1.25,0,0,0-1.76.49.75.75,0,0,0,0,.86c.16.11.28-.08.72-.34.17-.09.41,0,.67.2-.4.82-.41,1.38,0,1.5s1.92.21,1.76.67-1.92-.13-2.42.35-.62.45-.46,1c-.25,0-.94,0-1,1.14,0,.86.22,1.05.42,1.07s.27-.07.31-.56.41-.5.75-.48c.38.76.69,1,1.51.57,1-.55,1.31-.94,1.66-.87s-1,.72,0,1.48l.24.16c.27.17.75.52.18,1.2-.12.15-.19.34-.06.47s.36.38,1.07-.19a1.24,1.24,0,0,0,.54-1.27.89.89,0,0,0,.54-.63c.15-.86-.28-1.47.14-1.55.06,0,1.18-.16.63.8-.25.44-.52,1.06-.36,1.15a2,2,0,0,0,1.69-.85,16.73,16.73,0,0,0,.9-1.61c.18-.37.76-.09.29.72-.26.44-.64,1.14-.48,1.23a2.28,2.28,0,0,0,1.81-.92c.44-.69.64-1.39.89-1.82l.25-.07c.26,0,.64.12.24.81-.25.43-.64,1.15-.48,1.23a2.33,2.33,0,0,0,1.81-.93c.58-.89.75-1.82,1.13-2.11l.06,0h0l0,0,.15-.13c.82-.95-.19-2,0-2.72s2.49-1.58,3.08-.81C200.63,80.29,201.9,76.15,201.66,75.77Zm19.55-22.07a16.49,16.49,0,0,1-2.29,1.69s.39-.74.85-1.43a4.14,4.14,0,0,0,.85-2.54c0-1.15,1-1.48.34-1.41s-2.19,2.13-2.19,2.13a10.64,10.64,0,0,1,.56-2c.31-.64,2.21-1.63,1.84-1.72a5.76,5.76,0,0,0-3.46,1.45c-.95,1-.89,2.48-1.52,3.92s-1.21,3.13-.49,3.84h0a5.17,5.17,0,0,1-.92.95c-1.66,1.41-3.38,2.57-3.62,4.85h0a4.5,4.5,0,0,0,.1,1.82c.05.27.24.81.24.81,1.17,3.38,4.57,7.68,5.18,12.37.24,1.83-1.14,4-3,2.82-.64-.4-1.37-3.15-1.37-3.15a4.48,4.48,0,0,0-.7-1.52,4.64,4.64,0,0,0-1-.74,6,6,0,0,0-1.42-2.64c-1.31-1.4-2.05-2.38-3.16-3.69a3.75,3.75,0,0,1-.88-2.75,12.67,12.67,0,0,1-2.14,1c-1.2,1.06-3.55,2.67-4.56,2.38-.34-.48.14-1,.14-1l-2.76,1a5.86,5.86,0,0,0,2,2.53c1.35.91,2,.91,3,1.82s2.67-.81,1.06,4.42c-1.42,4.61,0,5.67,1.85,7.23a1.15,1.15,0,0,0-.74.66c-.39.77.07,1.17.45,1.54a4.63,4.63,0,0,1,.71,1.24,7.36,7.36,0,0,0,.58-1.13,1.78,1.78,0,0,0,.77.77,4.74,4.74,0,0,1,1,1.08s.65-1.68.25-2.15L206.6,88c1,.28,1.77.13,2.2,1,.69,1.39-.56,7.45-1.07,7.46s.06-1.55-.12-1.93c0-.08-.14-.13-.29-.14a1.28,1.28,0,0,0-1.05-1c-.88-.27-1.15.06-1.22.23s-.08.22.42.39.56.38.56.61a1.71,1.71,0,0,0-.67.36c-.33.39.94,1.46.44,1.63s-.77-1.09-1.69-.91l-.28.11a1.34,1.34,0,0,0-1.23.34,1.1,1.1,0,0,0-.39.8c0,.21.11.38.54.08a1,1,0,0,1,.47-.13c-.41,1.38,1,1.21,1.44,1.2s1.17.46,1.18.84-.92-.21-1.76.19c-.27.13-.24.43-.06.77a1,1,0,0,0-.72,1.25c.12.85.65,1,.79,1s.26-.1.22-.59.24-.61.57-.64c.37.29.76.47,1,.36.66-.32,1.07-1.64,1.32-1.48s.15.17.34,1a.78.78,0,0,0,1,.67.65.65,0,0,1,0,.55c-.18.26-.55.64-.34.76s1.31.09,1.53-.66a1.34,1.34,0,0,0-.26-1.19l.17-.29c.08-.46-.84-.92-.51-1.24.13-.13.38-.3.66-.57.18,0,.34.15.4.62s.18,1.29.38,1.27a2.07,2.07,0,0,0,.89-1.73,11.93,11.93,0,0,0-.38-1.83l.11-.19a6.7,6.7,0,0,0,.28-.71,1.1,1.1,0,0,1,.25.45c.16.48.43,1.23.62,1.18a2,2,0,0,0,.54-1.85c-.24-.91-.77-1.61-.83-2.08l0-.25c.17-.16.45-.26.8.33.27.43.71,1.11.87,1a1.93,1.93,0,0,0,.12-1.91c-.5-.9-1.23-1.52-1.32-2l0-.17c.16-.17.45-.25.79.32s.72,1.1.89,1a2,2,0,0,0,.09-1.92c-.55-1-1.38-1.6-1.35-2.08a3,3,0,0,0-.1-.62c-.17-.77-.34-.69-1.85-1s-1.95-1.92-2-2.69c0-.4,1-2.2,1.56-4.41l0,0c.52,1.25,1.06,2.93,2.28,3.58,2.9,1.53,5.79-.24,5.67-4.92a11.47,11.47,0,0,0-1.22-4.43,12.27,12.27,0,0,0,.8-1.51,2,2,0,0,0-.33-1.83c-.17-.06-.49.63-.68,1.08-.3.7-.62.49-.77.32s.51-1,.74-1.57a2,2,0,0,0-.32-1.83c-.17-.06-.5.64-.69,1.08-.39.91-.83.26-.87.2a9.06,9.06,0,0,0,.74-1.41,2,2,0,0,0-.33-1.83c-.17-.06-.49.64-.68,1.07-.41.94-.84.23-.87.19l-.12-.2c.19-.44.63-1,.9-1.74a2,2,0,0,0-.33-1.83c-.17-.06-.49.64-.68,1.08-.34.78-.7.43-.81.26a2.88,2.88,0,0,1-.12-.44c-.14-2.9,3-4.94,3.49-5.47A4.91,4.91,0,0,0,217.3,58c.47-.05.87-.15,1-.15a4.66,4.66,0,0,0,2-1.65C220.85,55.27,221.81,53.07,221.21,53.69ZM181.4,45.94c.15.11.26-.15.43-.26.45-.29.68-.25.93-.11a2.26,2.26,0,0,0-.25.85c0,.54,2.17,1.07,2.11,1.37s-1.75.26-1.83.88c0,.19,0,.45,0,.74-.28,0-.56-.11-.69-.58s-.1-.52-.28-.47-.66.31-.46,1.16a1.32,1.32,0,0,0,1.4,1.1l.21-.1a.92.92,0,0,0,.67.55,6.15,6.15,0,0,0,1.66-.48s.13.29.37.78l-.05-.09s.32,1-.84.6c-.53-.21-1.13-.36-1.21-.17a1.84,1.84,0,0,0,1.07,1.66c.88.38,1.76.46,2.27.68,0,.25-.17.54-.88.27-.53-.19-1.39-.49-1.47-.3a2.48,2.48,0,0,0,1.33,1.81c1,.44,2,.48,2.48.79l0,0c0,.24-.22.45-.88.21s-1.39-.51-1.46-.31a2.49,2.49,0,0,0,1.33,1.8c1.18.51,2.32.49,2.64.95.08.1,0,0-.12-.26l.17.23c0,.23-.21.43-.84.25s-1.43-.38-1.49-.18a2.53,2.53,0,0,0,1.5,1.68c1.21.4,2.36.29,2.72.7h0a9.21,9.21,0,0,1,.53-3.68,15.29,15.29,0,0,1,.9-2.06s-3.6-4.59-4-5.23a4.75,4.75,0,0,1-.87-1.85,3,3,0,0,0,1.85-1.48,1.85,1.85,0,0,0-.2-1.49h0a1.19,1.19,0,0,0,0-1.71c-.56-.69-.94-.62-1.09-.51s-.25.17,0,.58a.62.62,0,0,1-.21,1l-.32.13-.05,0h0c-.41.29-.24,1.07-.62.87s.56-2.57-.2-2.79l-.31-.07c0-.31-.14-1-1.17-1.21s-1.16.23-1.2.4-.07.15.45.29.64.41.62.67c-.32.13-.56.32-.55.56,0,.62.43,1.68.11,1.71s-1.11-1.85-1.69-1.85c-.21,0-.33.08-.56.37l-.23,0a1.24,1.24,0,0,0-1.69.36C181,45.48,181.24,45.84,181.4,45.94Zm21.93,20.32a5.43,5.43,0,0,0,1.09-4.13,6.2,6.2,0,0,1-1.9.61,11.07,11.07,0,0,1-2.37,2.21,6.08,6.08,0,0,1-.07,1.73,15.47,15.47,0,0,1-1.15,2.92A11,11,0,0,0,203.33,66.26Zm4.66-3c1.81-2.35,1.43-6.77,1.43-6.77a17.09,17.09,0,0,1-2,3.32A8.54,8.54,0,0,1,205,62.12s-.09,3.49-1,4.43S206.18,65.61,208,63.26Zm-15.32-1.78c.45.13,1.75-2.18,3.12-2.55s3.39-.4,4.5-1.46,1.39-3.38,2.5-4.67c0,0-2.35.73-5,1.23a6.16,6.16,0,0,0-4.06,2.72C192.83,58,192.22,61.35,192.67,61.48Z"/><path class="cls-1" d="M193.88,44.59s-1.75,2.06-.13,3,2.3.59,3.81.74,2.73,1,2.48,1.62-1.09.09-1.09.09-.26-.7-1.44-.84-3.62,1.62-5.18-.33-.56-4.31,1.56-4.26"/><path class="cls-1" d="M139.93,93l-.38-.2.1,0a15.11,15.11,0,0,1-4.84-3.56c-.19-.22-.35-.45-.52-.67a1.23,1.23,0,0,1-.82.38h0a1.08,1.08,0,0,1-1-.54,1.47,1.47,0,0,1-.91.31,2.25,2.25,0,0,1-1.12-.34l-.14-.08a2,2,0,0,1-.57.62l-.19.13a1.25,1.25,0,0,1,0,1.6,1.39,1.39,0,0,1-1,.45,2.1,2.1,0,0,1-1.3-.56l-.09-.08c-.56,1.55.23,3,1.13,4.73a4.22,4.22,0,0,0,5.09,1.49c.47,1.41,2.94,3.11,5,3.13a1,1,0,0,0,.17-.52l-.16-.07a1.86,1.86,0,0,1-.69-.38,3.53,3.53,0,0,1-.49-4.09,2.69,2.69,0,0,1,.91-1,2.16,2.16,0,0,0,.35,2.38c.61.53,1.45.27,1.89-.6a2.2,2.2,0,0,0-.32-2.52"/><path class="cls-1" d="M188.5,90.78a2.11,2.11,0,0,1-1.3.57,1.37,1.37,0,0,1-1-.4,1.27,1.27,0,0,1-.1-1.64l-.24-.18a1.84,1.84,0,0,1-.52-.58l-.15.09a2.24,2.24,0,0,1-1.1.33,1.49,1.49,0,0,1-.91-.3,1,1,0,0,1-1,.54,1.29,1.29,0,0,1-.88-.39l-.52.68A15.15,15.15,0,0,1,176,93l.1,0a1.18,1.18,0,0,0-.39.2,2.2,2.2,0,0,0-.31,2.52c.44.86,1.27,1.13,1.88.6a2.17,2.17,0,0,0,.35-2.39,2.63,2.63,0,0,1,.9,1,3.53,3.53,0,0,1-.49,4.09,1.8,1.8,0,0,1-.69.38l-.16.08a1,1,0,0,0,.18.52c2,0,4.49-1.72,5-3.13a4.23,4.23,0,0,0,5.1-1.49c.89-1.7,1.69-3.17,1.13-4.73l-.09.08"/><path class="cls-1" d="M134.52,77.43l.09.11a18.11,18.11,0,0,1-1.2-3.53,1.14,1.14,0,0,1-.33.68,1.33,1.33,0,0,1-1,.39,2.4,2.4,0,0,1-1.47-.62,2.21,2.21,0,0,1-.9-1.77l-.08.05a1.16,1.16,0,0,1-.52.11,4,4,0,0,1-2.51-1.1,1.38,1.38,0,0,1-.4.06,4.07,4.07,0,0,1-2.38-1c0,.9.11,1.88.23,2.92a2.17,2.17,0,0,1,1.74,1.53,3.64,3.64,0,0,0,.7.86l1,.94-1.23.57-.32.13a8.87,8.87,0,0,1,.4,1.69,2.24,2.24,0,0,1,1-.65,2.7,2.7,0,0,1,.91-.17,5.24,5.24,0,0,1,2-1.42,3.88,3.88,0,0,1,1.91-.25,2.91,2.91,0,0,0-1.83,2.77,1.47,1.47,0,0,0,.21.52h.07a1.66,1.66,0,0,1,.43.06h0a2.47,2.47,0,0,1,1.07-.24,2,2,0,0,1,1.25.46A2.79,2.79,0,0,0,134.74,78a1.38,1.38,0,0,0-.22-.55m-1.26-4.15L133.2,73l-.07.05Zm-3-7.89c.22.15.39.28.5.34h.09v-.16a4,4,0,0,1,.65-2.81,1.69,1.69,0,0,1,.92-.5,2.36,2.36,0,0,1,1.4-1,2.89,2.89,0,0,1,.84-.14,3,3,0,0,0-1.95-2.73c-1.23-.47-2.32,0-2.47,1.11a2.91,2.91,0,0,0,1.84,2.76,3.88,3.88,0,0,1-1.9-.25,5.26,5.26,0,0,1-2-1.41,3.53,3.53,0,0,1-1.62,1.29,9.48,9.48,0,0,1-1.64.36l-.23,0c1.09.6,2.29,1.21,2.95,1.51A17.1,17.1,0,0,1,130.29,65.39Z"/><path class="cls-1" d="M189.34,71.8h-.22l-.17-.07a3.92,3.92,0,0,1-2.52,1.11h-.21l-.31-.11-.09-.05a2.2,2.2,0,0,1-.89,1.77,2.4,2.4,0,0,1-1.47.62,1.36,1.36,0,0,1-1-.39,1.16,1.16,0,0,1-.32-.69,17.83,17.83,0,0,1-1.2,3.54l.09-.11a1.42,1.42,0,0,0-.22.56,2.79,2.79,0,0,0,1.35,2.51,1.94,1.94,0,0,1,1.25-.46,2.6,2.6,0,0,1,1.1.26,1.51,1.51,0,0,1,.43-.06H185a1.37,1.37,0,0,0,.21-.53,2.9,2.9,0,0,0-1.83-2.76,3.84,3.84,0,0,1,1.9.25,5.18,5.18,0,0,1,2,1.42,2.72,2.72,0,0,1,.91.17,2.26,2.26,0,0,1,1,.65,9.31,9.31,0,0,1,.41-1.7l-.32-.13L188.08,77l1-.94a4.17,4.17,0,0,0,.7-.85,2.17,2.17,0,0,1,1.75-1.55c.11-1,.18-2,.22-2.92a4.08,4.08,0,0,1-2.38,1m-6.21-9.53a1.67,1.67,0,0,1,.92.48,3.91,3.91,0,0,1,.64,2.82v.15h0a2.54,2.54,0,0,0,.56-.33,16.54,16.54,0,0,1,2.65-1.61c.66-.3,1.85-.91,2.94-1.51l-.23,0a9.83,9.83,0,0,1-1.63-.35,3.57,3.57,0,0,1-1.64-1.29,5.16,5.16,0,0,1-2,1.41,3.86,3.86,0,0,1-1.9.25,2.9,2.9,0,0,0,1.84-2.76c-.14-1.09-1.24-1.58-2.47-1.11a3,3,0,0,0-2,2.73,3,3,0,0,1,.84.13A2.36,2.36,0,0,1,183.14,62.27Zm-.69,10.82-.06-.05-.05.24Z"/><path class="cls-1" d="M176.66,38.35a1.8,1.8,0,0,1-.49.88l-.31-.13a3.41,3.41,0,0,0-1.39-.51c-2.43-.32-5.25,1.61-6.29,4.34a4.83,4.83,0,0,0-.14,3.44c-.22,1.19-.14,2.21.65,2.51a26.21,26.21,0,0,0-22,.06c.79-.3.86-1.32.63-2.51a4.82,4.82,0,0,0-.15-3.44c-1.05-2.72-3.89-4.64-6.31-4.3a3.3,3.3,0,0,0-1.39.51l-.31.13a1.93,1.93,0,0,1-.5-.89c2.55-2.79,8-4.19,10.54-3.13,1.16-3.63,4.53-4.38,8.44-5.32,3.91.92,7.28,1.65,8.47,5.27,2.52-1.08,8,.3,10.56,3.08m-14.06-1.88c.4.06.87.3.74.63L161,42.3l-1.94-4.47a2.64,2.64,0,0,1-.28-.79.76.76,0,0,1,.5-.56l-3.48.05a1.63,1.63,0,0,1,.87.61c.08.13.44.85.9,1.82-.69,1.51-1.63,3.52-1.63,3.52l-2.37-5.2c-.1-.3.23-.59.6-.72l-3.76.08a2.22,2.22,0,0,1,1.06.58c.28.46,4.11,8.11,4.11,8.11L158.06,40c1.13,2.37,2.54,5.34,2.54,5.34s3.52-7.78,3.78-8.26c.14-.29.45-.42.84-.6Z"/><path class="cls-1" d="M139,101a2,2,0,0,1,.49-.91l.31.13a3.19,3.19,0,0,0,1.38.51c2.4.33,5.18-1.65,6.2-4.43a5.07,5.07,0,0,0,.13-3.5c.22-1.21.14-2.26-.64-2.55a25.09,25.09,0,0,0,21.68-.06c-.78.3-.85,1.34-.62,2.56a5.06,5.06,0,0,0,.15,3.5c1,2.77,3.83,4.73,6.23,4.39a3.37,3.37,0,0,0,1.37-.52L176,100a1.91,1.91,0,0,1,.49.9c-2.52,2.85-7.89,4.29-10.39,3.2-1.15,3.7-4.47,4.47-8.32,5.43-3.85-.94-7.18-1.69-8.35-5.38-2.49,1.1-7.88-.3-10.41-3.13m19,7.49.84-1.86a21.66,21.66,0,0,1-.6-5c-.12-2.75-.24-6.88-.24-6.88l-.16,0s-.28,9.55-.72,11.86C157.5,107.33,158.07,108.46,158.07,108.46Zm6.57-4.29.16-1.05,1.12.12a13.89,13.89,0,0,1-2.36-4.17,18.83,18.83,0,0,1-.76-4.37h-.32a31.06,31.06,0,0,0,.44,5A11.82,11.82,0,0,0,164.64,104.17Zm-11.5-4.65a26.29,26.29,0,0,0,.36-4.82h-.32a19.15,19.15,0,0,1-.76,4.37,14,14,0,0,1-2.36,4.17l1.12-.12.16,1.05A12.76,12.76,0,0,0,153.14,99.52Z"/></svg>